<svg width="518" height="125" viewBox="0 0 518 125" fill="none" xmlns="http://www.w3.org/2000/svg">
<path d="M64.5186 49.4531H70.7197L79.8506 75.5518L88.9814 49.4531H95.1826L82.3408 85H77.3604L64.5186 49.4531ZM61.1738 49.4531H67.3506L68.4736 74.8926V85H61.1738V49.4531ZM92.3506 49.4531H98.5518V85H91.2275V74.8926L92.3506 49.4531ZM116.691 85.4883C114.641 85.4883 112.801 85.1628 111.174 84.5117C109.546 83.8444 108.163 82.9248 107.023 81.7529C105.9 80.5811 105.038 79.222 104.436 77.6758C103.833 76.1133 103.532 74.4531 103.532 72.6953V71.7188C103.532 69.7168 103.817 67.8857 104.387 66.2256C104.956 64.5654 105.77 63.125 106.828 61.9043C107.902 60.6836 109.204 59.7477 110.734 59.0967C112.264 58.4294 113.99 58.0957 115.91 58.0957C117.782 58.0957 119.442 58.4049 120.891 59.0234C122.339 59.6419 123.552 60.5208 124.528 61.6602C125.521 62.7995 126.27 64.1667 126.774 65.7617C127.279 67.3405 127.531 69.0983 127.531 71.0352V73.9648H106.535V69.2773H120.622V68.7402C120.622 67.7637 120.443 66.8929 120.085 66.1279C119.743 65.3467 119.222 64.7282 118.522 64.2725C117.823 63.8167 116.927 63.5889 115.837 63.5889C114.909 63.5889 114.112 63.7923 113.444 64.1992C112.777 64.6061 112.232 65.1758 111.809 65.9082C111.402 66.6406 111.092 67.5033 110.881 68.4961C110.686 69.4727 110.588 70.5469 110.588 71.7188V72.6953C110.588 73.7533 110.734 74.7298 111.027 75.625C111.337 76.5202 111.768 77.2933 112.321 77.9443C112.891 78.5954 113.575 79.0999 114.372 79.458C115.186 79.8161 116.105 79.9951 117.131 79.9951C118.4 79.9951 119.58 79.751 120.671 79.2627C121.778 78.7581 122.73 78.0013 123.527 76.9922L126.945 80.7031C126.392 81.5007 125.635 82.2656 124.675 82.998C123.731 83.7305 122.591 84.3327 121.257 84.8047C119.922 85.2604 118.4 85.4883 116.691 85.4883ZM138.396 47.5V85H131.364V47.5H138.396ZM137.395 70.8643H135.466C135.482 69.0251 135.726 67.3324 136.198 65.7861C136.67 64.2236 137.346 62.8727 138.225 61.7334C139.104 60.5778 140.153 59.6826 141.374 59.0479C142.611 58.4131 143.978 58.0957 145.476 58.0957C146.778 58.0957 147.958 58.2829 149.016 58.6572C150.09 59.0153 151.009 59.6012 151.774 60.415C152.556 61.2126 153.158 62.2624 153.581 63.5645C154.004 64.8665 154.216 66.4453 154.216 68.3008V85H147.136V68.252C147.136 67.0801 146.965 66.1605 146.623 65.4932C146.298 64.8096 145.817 64.3294 145.183 64.0527C144.564 63.7598 143.799 63.6133 142.888 63.6133C141.879 63.6133 141.016 63.8005 140.3 64.1748C139.6 64.5492 139.038 65.07 138.615 65.7373C138.192 66.3883 137.883 67.1533 137.688 68.0322C137.492 68.9111 137.395 69.8551 137.395 70.8643ZM166.594 64.0527V85H159.538V58.584H166.154L166.594 64.0527ZM165.617 70.8643H163.664C163.664 69.0251 163.884 67.3324 164.323 65.7861C164.779 64.2236 165.438 62.8727 166.301 61.7334C167.18 60.5778 168.262 59.6826 169.548 59.0479C170.834 58.4131 172.323 58.0957 174.016 58.0957C175.188 58.0957 176.262 58.2747 177.238 58.6328C178.215 58.9746 179.053 59.5199 179.753 60.2686C180.469 61.001 181.022 61.9613 181.413 63.1494C181.804 64.3213 181.999 65.7292 181.999 67.373V85H174.968V68.1543C174.968 66.9499 174.805 66.0221 174.479 65.3711C174.154 64.7201 173.69 64.2643 173.088 64.0039C172.502 63.7435 171.794 63.6133 170.964 63.6133C170.052 63.6133 169.255 63.8005 168.571 64.1748C167.904 64.5492 167.351 65.07 166.911 65.7373C166.472 66.3883 166.146 67.1533 165.935 68.0322C165.723 68.9111 165.617 69.8551 165.617 70.8643ZM181.34 70.0586L178.825 70.376C178.825 68.6507 179.037 67.0475 179.46 65.5664C179.899 64.0853 180.542 62.7832 181.389 61.6602C182.251 60.5371 183.317 59.6663 184.587 59.0479C185.856 58.4131 187.321 58.0957 188.981 58.0957C190.251 58.0957 191.407 58.2829 192.448 58.6572C193.49 59.0153 194.377 59.5931 195.109 60.3906C195.858 61.1719 196.428 62.1973 196.818 63.4668C197.225 64.7363 197.429 66.2907 197.429 68.1299V85H190.373V68.1299C190.373 66.9092 190.21 65.9814 189.885 65.3467C189.576 64.6956 189.12 64.248 188.518 64.0039C187.932 63.7435 187.232 63.6133 186.418 63.6133C185.572 63.6133 184.831 63.7842 184.196 64.126C183.562 64.4515 183.033 64.9072 182.609 65.4932C182.186 66.0791 181.869 66.7627 181.657 67.5439C181.446 68.3089 181.34 69.1471 181.34 70.0586ZM215.031 85.4883C212.98 85.4883 211.141 85.1628 209.514 84.5117C207.886 83.8444 206.503 82.9248 205.363 81.7529C204.24 80.5811 203.378 79.222 202.775 77.6758C202.173 76.1133 201.872 74.4531 201.872 72.6953V71.7188C201.872 69.7168 202.157 67.8857 202.727 66.2256C203.296 64.5654 204.11 63.125 205.168 61.9043C206.242 60.6836 207.544 59.7477 209.074 59.0967C210.604 58.4294 212.329 58.0957 214.25 58.0957C216.122 58.0957 217.782 58.4049 219.23 59.0234C220.679 59.6419 221.892 60.5208 222.868 61.6602C223.861 62.7995 224.61 64.1667 225.114 65.7617C225.619 67.3405 225.871 69.0983 225.871 71.0352V73.9648H204.875V69.2773H218.962V68.7402C218.962 67.7637 218.783 66.8929 218.425 66.1279C218.083 65.3467 217.562 64.7282 216.862 64.2725C216.162 63.8167 215.267 63.5889 214.177 63.5889C213.249 63.5889 212.451 63.7923 211.784 64.1992C211.117 64.6061 210.572 65.1758 210.148 65.9082C209.742 66.6406 209.432 67.5033 209.221 68.4961C209.025 69.4727 208.928 70.5469 208.928 71.7188V72.6953C208.928 73.7533 209.074 74.7298 209.367 75.625C209.676 76.5202 210.108 77.2933 210.661 77.9443C211.231 78.5954 211.914 79.0999 212.712 79.458C213.526 79.8161 214.445 79.9951 215.471 79.9951C216.74 79.9951 217.92 79.751 219.011 79.2627C220.118 78.7581 221.07 78.0013 221.867 76.9922L225.285 80.7031C224.732 81.5007 223.975 82.2656 223.015 82.998C222.071 83.7305 220.931 84.3327 219.597 84.8047C218.262 85.2604 216.74 85.4883 215.031 85.4883ZM242.814 58.584V63.5645H227.434V58.584H242.814ZM231.242 52.0654H238.273V77.041C238.273 77.806 238.371 78.3919 238.566 78.7988C238.778 79.2057 239.087 79.4906 239.494 79.6533C239.901 79.7998 240.414 79.873 241.032 79.873C241.472 79.873 241.862 79.8568 242.204 79.8242C242.562 79.7754 242.863 79.7266 243.107 79.6777L243.132 84.8535C242.53 85.0488 241.879 85.2035 241.179 85.3174C240.479 85.4313 239.706 85.4883 238.859 85.4883C237.313 85.4883 235.962 85.236 234.807 84.7314C233.667 84.2106 232.788 83.3805 232.17 82.2412C231.551 81.1019 231.242 79.6045 231.242 77.749V52.0654Z" fill="#FFCA30"/>
<path d="M261.174 69.3994H252.043L251.994 64.3701H259.66C261.011 64.3701 262.118 64.1992 262.98 63.8574C263.843 63.4993 264.486 62.9867 264.909 62.3193C265.349 61.6357 265.568 60.8057 265.568 59.8291C265.568 58.7223 265.357 57.8271 264.934 57.1436C264.527 56.46 263.884 55.9635 263.005 55.6543C262.142 55.3451 261.027 55.1904 259.66 55.1904H254.582V85H247.258V49.4531H259.66C261.727 49.4531 263.575 49.6484 265.202 50.0391C266.846 50.4297 268.238 51.0238 269.377 51.8213C270.516 52.6188 271.387 53.6279 271.989 54.8486C272.591 56.0531 272.893 57.4854 272.893 59.1455C272.893 60.6104 272.559 61.9613 271.892 63.1982C271.241 64.4352 270.207 65.4443 268.791 66.2256C267.391 67.0068 265.56 67.4382 263.298 67.5195L261.174 69.3994ZM260.856 85H250.041L252.897 79.2871H260.856C262.142 79.2871 263.192 79.0837 264.006 78.6768C264.82 78.2536 265.422 77.6839 265.812 76.9678C266.203 76.2516 266.398 75.4297 266.398 74.502C266.398 73.4603 266.219 72.557 265.861 71.792C265.52 71.027 264.966 70.4411 264.201 70.0342C263.436 69.611 262.427 69.3994 261.174 69.3994H254.118L254.167 64.3701H262.956L264.641 66.3477C266.805 66.3151 268.547 66.6976 269.865 67.4951C271.2 68.2764 272.168 69.2936 272.771 70.5469C273.389 71.8001 273.698 73.1429 273.698 74.5752C273.698 76.8538 273.202 78.7744 272.209 80.3369C271.216 81.8831 269.759 83.0469 267.839 83.8281C265.935 84.6094 263.607 85 260.856 85ZM293.01 79.043V67.2754C293.01 66.429 292.871 65.7048 292.595 65.1025C292.318 64.484 291.887 64.0039 291.301 63.6621C290.731 63.3203 289.991 63.1494 289.079 63.1494C288.298 63.1494 287.622 63.2878 287.053 63.5645C286.483 63.8249 286.044 64.2074 285.734 64.7119C285.425 65.2002 285.271 65.778 285.271 66.4453H278.239C278.239 65.3223 278.5 64.2562 279.021 63.2471C279.541 62.238 280.298 61.3509 281.291 60.5859C282.284 59.8047 283.464 59.1943 284.831 58.7549C286.215 58.3154 287.761 58.0957 289.47 58.0957C291.521 58.0957 293.343 58.4375 294.938 59.1211C296.534 59.8047 297.787 60.8301 298.698 62.1973C299.626 63.5645 300.09 65.2734 300.09 67.3242V78.6279C300.09 80.0765 300.179 81.2646 300.358 82.1924C300.537 83.1038 300.798 83.9014 301.14 84.585V85H294.035C293.693 84.2839 293.433 83.3887 293.254 82.3145C293.091 81.224 293.01 80.1335 293.01 79.043ZM293.938 68.9111L293.986 72.8906H290.056C289.128 72.8906 288.322 72.9964 287.639 73.208C286.955 73.4196 286.394 73.7207 285.954 74.1113C285.515 74.4857 285.189 74.9251 284.978 75.4297C284.782 75.9342 284.685 76.4876 284.685 77.0898C284.685 77.6921 284.823 78.2373 285.1 78.7256C285.376 79.1976 285.775 79.5719 286.296 79.8486C286.817 80.109 287.427 80.2393 288.127 80.2393C289.185 80.2393 290.104 80.0277 290.886 79.6045C291.667 79.1813 292.269 78.6605 292.692 78.042C293.132 77.4235 293.36 76.8376 293.376 76.2842L295.231 79.2627C294.971 79.93 294.613 80.6217 294.157 81.3379C293.718 82.054 293.156 82.7295 292.473 83.3643C291.789 83.9827 290.967 84.4954 290.007 84.9023C289.047 85.293 287.907 85.4883 286.589 85.4883C284.912 85.4883 283.391 85.1546 282.023 84.4873C280.673 83.8037 279.598 82.8678 278.801 81.6797C278.02 80.4753 277.629 79.1081 277.629 77.5781C277.629 76.1947 277.889 74.9658 278.41 73.8916C278.931 72.8174 279.696 71.9141 280.705 71.1816C281.73 70.4329 283.008 69.8714 284.538 69.4971C286.068 69.1064 287.842 68.9111 289.86 68.9111H293.938ZM319.792 77.7002C319.792 77.1956 319.646 76.7399 319.353 76.333C319.06 75.9261 318.514 75.5518 317.717 75.21C316.936 74.8519 315.804 74.5264 314.323 74.2334C312.989 73.9404 311.743 73.5742 310.588 73.1348C309.449 72.679 308.456 72.1338 307.609 71.499C306.779 70.8643 306.128 70.1156 305.656 69.2529C305.184 68.374 304.948 67.373 304.948 66.25C304.948 65.1432 305.184 64.1016 305.656 63.125C306.145 62.1484 306.836 61.2858 307.731 60.5371C308.643 59.7721 309.75 59.1781 311.052 58.7549C312.37 58.3154 313.851 58.0957 315.495 58.0957C317.79 58.0957 319.759 58.4619 321.403 59.1943C323.063 59.9268 324.333 60.9359 325.212 62.2217C326.107 63.4912 326.555 64.9398 326.555 66.5674H319.523C319.523 65.8838 319.377 65.2734 319.084 64.7363C318.807 64.1829 318.368 63.7516 317.766 63.4424C317.18 63.1169 316.415 62.9541 315.471 62.9541C314.689 62.9541 314.014 63.0924 313.444 63.3691C312.875 63.6296 312.435 63.9876 312.126 64.4434C311.833 64.8828 311.687 65.3711 311.687 65.9082C311.687 66.3151 311.768 66.6813 311.931 67.0068C312.11 67.3161 312.395 67.6009 312.785 67.8613C313.176 68.1217 313.68 68.3659 314.299 68.5938C314.934 68.8053 315.715 69.0007 316.643 69.1797C318.547 69.5703 320.248 70.083 321.745 70.7178C323.243 71.3363 324.431 72.1826 325.31 73.2568C326.188 74.3148 326.628 75.7064 326.628 77.4316C326.628 78.6035 326.368 79.6777 325.847 80.6543C325.326 81.6309 324.577 82.4854 323.601 83.2178C322.624 83.9339 321.452 84.4954 320.085 84.9023C318.734 85.293 317.212 85.4883 315.52 85.4883C313.062 85.4883 310.979 85.0488 309.27 84.1699C307.577 83.291 306.291 82.1761 305.412 80.8252C304.549 79.458 304.118 78.0583 304.118 76.626H310.783C310.816 77.5863 311.06 78.3594 311.516 78.9453C311.988 79.5312 312.582 79.9544 313.298 80.2148C314.03 80.4753 314.82 80.6055 315.666 80.6055C316.577 80.6055 317.334 80.4834 317.937 80.2393C318.539 79.9788 318.994 79.637 319.304 79.2139C319.629 78.7744 319.792 78.2699 319.792 77.7002ZM338.225 64.3457V85H331.193V58.584H337.81L338.225 64.3457ZM346.184 58.4131L346.062 64.9316C345.72 64.8828 345.305 64.8421 344.816 64.8096C344.344 64.7607 343.913 64.7363 343.522 64.7363C342.53 64.7363 341.667 64.8665 340.935 65.127C340.218 65.3711 339.616 65.7373 339.128 66.2256C338.656 66.7139 338.298 67.3079 338.054 68.0078C337.826 68.7077 337.696 69.5052 337.663 70.4004L336.247 69.9609C336.247 68.252 336.418 66.6813 336.76 65.249C337.102 63.8005 337.598 62.5391 338.249 61.4648C338.916 60.3906 339.73 59.5605 340.69 58.9746C341.651 58.3887 342.749 58.0957 343.986 58.0957C344.377 58.0957 344.776 58.1283 345.183 58.1934C345.59 58.2422 345.923 58.3154 346.184 58.4131ZM356.926 58.584V85H349.87V58.584H356.926ZM349.431 51.6992C349.431 50.6738 349.789 49.8275 350.505 49.1602C351.221 48.4928 352.181 48.1592 353.386 48.1592C354.574 48.1592 355.526 48.4928 356.242 49.1602C356.975 49.8275 357.341 50.6738 357.341 51.6992C357.341 52.7246 356.975 53.571 356.242 54.2383C355.526 54.9056 354.574 55.2393 353.386 55.2393C352.181 55.2393 351.221 54.9056 350.505 54.2383C349.789 53.571 349.431 52.7246 349.431 51.6992ZM361.613 72.0605V71.5479C361.613 69.611 361.89 67.8288 362.443 66.2012C362.997 64.5573 363.802 63.1331 364.86 61.9287C365.918 60.7243 367.22 59.7884 368.767 59.1211C370.313 58.4375 372.087 58.0957 374.089 58.0957C376.091 58.0957 377.873 58.4375 379.436 59.1211C380.998 59.7884 382.308 60.7243 383.366 61.9287C384.44 63.1331 385.254 64.5573 385.808 66.2012C386.361 67.8288 386.638 69.611 386.638 71.5479V72.0605C386.638 73.9811 386.361 75.7633 385.808 77.4072C385.254 79.0348 384.44 80.459 383.366 81.6797C382.308 82.8841 381.006 83.82 379.46 84.4873C377.914 85.1546 376.14 85.4883 374.138 85.4883C372.136 85.4883 370.354 85.1546 368.791 84.4873C367.245 83.82 365.935 82.8841 364.86 81.6797C363.802 80.459 362.997 79.0348 362.443 77.4072C361.89 75.7633 361.613 73.9811 361.613 72.0605ZM368.645 71.5479V72.0605C368.645 73.1673 368.742 74.2008 368.938 75.1611C369.133 76.1214 369.442 76.9678 369.865 77.7002C370.305 78.4163 370.874 78.9779 371.574 79.3848C372.274 79.7917 373.129 79.9951 374.138 79.9951C375.114 79.9951 375.952 79.7917 376.652 79.3848C377.352 78.9779 377.914 78.4163 378.337 77.7002C378.76 76.9678 379.069 76.1214 379.265 75.1611C379.476 74.2008 379.582 73.1673 379.582 72.0605V71.5479C379.582 70.4736 379.476 69.4645 379.265 68.5205C379.069 67.5602 378.752 66.7139 378.312 65.9814C377.889 65.2327 377.328 64.6468 376.628 64.2236C375.928 63.8005 375.082 63.5889 374.089 63.5889C373.096 63.5889 372.25 63.8005 371.55 64.2236C370.866 64.6468 370.305 65.2327 369.865 65.9814C369.442 66.7139 369.133 67.5602 368.938 68.5205C368.742 69.4645 368.645 70.4736 368.645 71.5479ZM407.683 58.584H414.055V84.1211C414.055 86.5299 413.518 88.5726 412.443 90.249C411.385 91.9417 409.904 93.2194 408 94.082C406.096 94.9609 403.882 95.4004 401.359 95.4004C400.253 95.4004 399.081 95.2539 397.844 94.9609C396.623 94.668 395.451 94.2122 394.328 93.5938C393.221 92.9753 392.294 92.194 391.545 91.25L394.646 87.0996C395.459 88.0436 396.403 88.776 397.478 89.2969C398.552 89.834 399.74 90.1025 401.042 90.1025C402.312 90.1025 403.386 89.8665 404.265 89.3945C405.144 88.9388 405.819 88.2633 406.291 87.3682C406.763 86.4893 406.999 85.4232 406.999 84.1699V64.6875L407.683 58.584ZM389.909 72.1094V71.5967C389.909 69.5785 390.153 67.7474 390.642 66.1035C391.146 64.4434 391.854 63.0192 392.766 61.8311C393.693 60.6429 394.816 59.7233 396.135 59.0723C397.453 58.4212 398.942 58.0957 400.603 58.0957C402.36 58.0957 403.833 58.4212 405.021 59.0723C406.21 59.7233 407.186 60.651 407.951 61.8555C408.716 63.0436 409.31 64.4515 409.733 66.0791C410.173 67.6904 410.515 69.4564 410.759 71.377V72.5C410.515 74.3392 410.148 76.0482 409.66 77.627C409.172 79.2057 408.529 80.5892 407.731 81.7773C406.934 82.9492 405.941 83.8607 404.753 84.5117C403.581 85.1628 402.181 85.4883 400.554 85.4883C398.926 85.4883 397.453 85.1546 396.135 84.4873C394.833 83.82 393.718 82.8841 392.79 81.6797C391.862 80.4753 391.146 79.0592 390.642 77.4316C390.153 75.804 389.909 74.0299 389.909 72.1094ZM396.94 71.5967V72.1094C396.94 73.1999 397.046 74.2171 397.258 75.1611C397.469 76.1051 397.795 76.9434 398.234 77.6758C398.69 78.3919 399.252 78.9535 399.919 79.3604C400.603 79.751 401.408 79.9463 402.336 79.9463C403.622 79.9463 404.672 79.6777 405.485 79.1406C406.299 78.5872 406.91 77.8304 407.316 76.8701C407.723 75.9098 407.959 74.8031 408.024 73.5498V70.3516C407.992 69.3262 407.854 68.4066 407.609 67.5928C407.365 66.7627 407.023 66.0547 406.584 65.4688C406.145 64.8828 405.575 64.4271 404.875 64.1016C404.175 63.776 403.345 63.6133 402.385 63.6133C401.457 63.6133 400.651 63.8249 399.968 64.248C399.3 64.6549 398.739 65.2165 398.283 65.9326C397.844 66.6488 397.51 67.4951 397.282 68.4717C397.054 69.432 396.94 70.4736 396.94 71.5967ZM405.266 47.793H410.271C410.271 49.1927 409.921 50.4378 409.221 51.5283C408.537 52.6025 407.561 53.4489 406.291 54.0674C405.021 54.6696 403.524 54.9707 401.799 54.9707C399.178 54.9707 397.103 54.3034 395.573 52.9688C394.06 51.6341 393.303 49.9089 393.303 47.793H398.283C398.283 48.6393 398.544 49.3962 399.064 50.0635C399.602 50.7308 400.513 51.0645 401.799 51.0645C403.068 51.0645 403.964 50.7308 404.484 50.0635C405.005 49.3962 405.266 48.6393 405.266 47.793ZM426.945 47.5V85H419.89V47.5H426.945ZM448.381 78.6768V58.584H455.412V85H448.796L448.381 78.6768ZM449.162 73.2568L451.237 73.208C451.237 74.9658 451.034 76.6016 450.627 78.1152C450.22 79.6126 449.61 80.9147 448.796 82.0215C447.982 83.112 446.957 83.9665 445.72 84.585C444.483 85.1872 443.026 85.4883 441.35 85.4883C440.064 85.4883 438.876 85.3092 437.785 84.9512C436.711 84.5768 435.783 83.999 435.002 83.2178C434.237 82.4202 433.635 81.403 433.195 80.166C432.772 78.9128 432.561 77.4072 432.561 75.6494V58.584H439.592V75.6982C439.592 76.4795 439.681 77.1387 439.86 77.6758C440.056 78.2129 440.324 78.6523 440.666 78.9941C441.008 79.3359 441.407 79.5801 441.862 79.7266C442.334 79.873 442.855 79.9463 443.425 79.9463C444.873 79.9463 446.013 79.6533 446.843 79.0674C447.689 78.4814 448.283 77.6839 448.625 76.6748C448.983 75.6494 449.162 74.5101 449.162 73.2568Z" fill="white"/>
<path fill-rule="evenodd" clip-rule="evenodd" d="M399 10H57.5C25.7436 10 0 35.7436 0 67.5C0 99.2564 25.7436 125 57.5 125H460.5C492.256 125 518 99.2564 518 67.5C518 35.7436 492.256 10 460.5 10H422V15H460.5C489.495 15 513 38.5051 513 67.5C513 96.4949 489.495 120 460.5 120H57.5C28.5051 120 5 96.4949 5 67.5C5 38.5051 28.5051 15 57.5 15H399V10Z" fill="#FFCA30"/>
<path d="M404 13.5L390 24L398.835 13.5L390 3L404 13.5Z" fill="#FFCA30"/>
<path d="M417 13.5L432 25L422.534 13.5L432 2L417 13.5Z" fill="#FFCA30"/>
<path d="M403 26.5L419.5 1" stroke="#FFCA30" stroke-width="2"/>
</svg>
