<svg width="1366" height="520" viewBox="0 0 1366 520" fill="none" xmlns="http://www.w3.org/2000/svg">
<g clip-path="url(#clip0_2_2)">
<mask id="mask0_2_2" style="mask-type:luminance" maskUnits="userSpaceOnUse" x="0" y="0" width="1366" height="520">
<path d="M0 0H1366V520H0V0Z" fill="white"/>
</mask>
<g mask="url(#mask0_2_2)">
<path fill-rule="evenodd" clip-rule="evenodd" d="M0 520H484.859H925.429H1366V0H0V520Z" fill="url(#paint0_linear_2_2)"/>
<path fill-rule="evenodd" clip-rule="evenodd" d="M1061.71 520C982.535 386.497 836.969 297 670.501 297C504.032 297 358.466 386.497 279.294 520H484.859H538.386C577.327 497.729 622.427 485 670.501 485C718.574 485 763.674 497.729 802.615 520H925.43H1061.71Z" fill="url(#paint1_linear_2_2)"/>
<path opacity="0.6" fill-rule="evenodd" clip-rule="evenodd" d="M109.229 0H0V196.248C61.5243 151.181 103.148 80.5517 109.229 0Z" fill="url(#paint2_linear_2_2)"/>
<path opacity="0.6" fill-rule="evenodd" clip-rule="evenodd" d="M1251.76 0C1275.28 61.8917 1315.11 115.749 1366 156.325V442.428C1177.71 367.365 1035.16 202.09 991.743 0H1251.76Z" fill="url(#paint3_linear_2_2)"/>
</g>
</g>
<defs>
<linearGradient id="paint0_linear_2_2" x1="-50.6915" y1="614.343" x2="130.006" y2="-592.828" gradientUnits="userSpaceOnUse">
<stop stop-color="#D0D8F5"/>
<stop offset="0.354923" stop-color="#F4F5FF"/>
<stop offset="1" stop-color="white"/>
</linearGradient>
<linearGradient id="paint1_linear_2_2" x1="573.106" y1="535.413" x2="546.872" y2="151.328" gradientUnits="userSpaceOnUse">
<stop stop-color="#E9EDFB"/>
<stop offset="0.376054" stop-color="#F6F8FD"/>
<stop offset="1" stop-color="white"/>
</linearGradient>
<linearGradient id="paint2_linear_2_2" x1="41.0178" y1="209.812" x2="-82.3301" y2="-76.6641" gradientUnits="userSpaceOnUse">
<stop stop-color="#E9EDFB"/>
<stop offset="0.376054" stop-color="#F6F8FD"/>
<stop offset="1" stop-color="white"/>
</linearGradient>
<linearGradient id="paint3_linear_2_2" x1="1132.28" y1="473.007" x2="931.511" y2="-235.687" gradientUnits="userSpaceOnUse">
<stop stop-color="#E9EDFB"/>
<stop offset="0.376054" stop-color="#F6F8FD"/>
<stop offset="1" stop-color="white"/>
</linearGradient>
<clipPath id="clip0_2_2">
<rect width="1366" height="520" fill="white"/>
</clipPath>
</defs>
</svg>
