<svg width="1152" height="565" viewBox="0 0 1152 565" fill="none" xmlns="http://www.w3.org/2000/svg">
<mask id="path-1-inside-1_30_96" fill="white">
<path fill-rule="evenodd" clip-rule="evenodd" d="M10 533V543C10 548.523 14.4771 553 20 553H29.8929V548V543H20L20 533H15H10ZM10 513H15H20V493H15H10V513ZM10 473H15H20V453H15H10V473ZM10 433H15H20V413H15H10V433ZM10 393H15H20V373H15H10V393ZM10 353H15H20V333H15H10V353ZM10 313H15H20V293H15H10V313ZM10 273H15H20V253H15H10V273ZM10 233H15H20V213H15H10V233ZM10 193H15H20V173H15H10V193ZM10 153H15H20V133H15H10V153ZM10 113H15H20V93H15H10V113ZM10 73H15H20V53H15H10V73ZM10 33H15H20V23L29.8929 23V18V13H20C14.4772 13 10 17.4771 10 23V33ZM49.6786 13V18V23H69.4643V18V13H49.6786ZM89.25 13V18V23H109.036V18V13H89.25ZM128.821 13V18V23H148.607V18V13H128.821ZM168.393 13V18V23H188.179V18V13H168.393ZM207.964 13V18V23H227.75V18V13H207.964ZM247.536 13V18V23H267.321V18V13H247.536ZM287.107 13V18V23H306.893V18V13H287.107ZM326.679 13V18V23H346.464V18V13H326.679ZM366.25 13V18V23H386.036V18V13H366.25ZM405.821 13V18V23H425.607V18V13H405.821ZM445.393 13V18V23H465.179V18V13H445.393ZM484.964 13V18V23H504.75V18V13H484.964ZM524.536 13V18V23H544.321V18V13H524.536ZM564.107 13V18V23H583.893V18V13H564.107ZM603.678 13V18V23H623.464V18V13H603.678ZM643.25 13V18V23H663.036V18V13H643.25ZM682.821 13V18V23H702.607V18V13H682.821ZM722.393 13V18V23H742.178V18V13H722.393ZM761.964 13V18V23H781.75V18V13H761.964ZM801.536 13V18V23H821.321V18V13H801.536ZM841.107 13V18V23H860.893V18V13H841.107ZM880.678 13V18V23H900.464V18V13H880.678ZM920.25 13V18V23H940.035V18V13H920.25ZM959.821 13V18V23H979.607V18V13H959.821ZM999.393 13V18V23H1019.18V18V13H999.393ZM1038.96 13V18V23H1058.75V18V13H1038.96ZM1078.54 13V18V23H1098.32V18V13H1078.54ZM1118.11 13V18V23H1128V33H1133H1138V23C1138 17.4772 1133.52 13 1128 13H1118.11ZM1138 53H1133H1128V73H1133H1138V53ZM1138 93H1133H1128V113H1133H1138V93ZM1138 133H1133H1128V153H1133H1138V133ZM1138 173H1133H1128V193H1133H1138V173ZM1138 213H1133H1128V233H1133H1138V213ZM1138 253H1133H1128V273H1133H1138V253ZM1138 293H1133H1128V313H1133H1138V293ZM1138 333H1133H1128V353H1133H1138V333ZM1138 373H1133H1128V393H1133H1138V373ZM1138 413H1133H1128V433H1133H1138V413ZM1138 453H1133H1128V473H1133H1138V453ZM1138 493H1133H1128V513H1133H1138V493ZM1138 533H1133H1128V543H1118.11V548V553H1128C1133.52 553 1138 548.523 1138 543V533ZM1098.32 553V548V543H1078.54V548V553H1098.32ZM1058.75 553V548V543H1038.96V548V553H1058.75ZM1019.18 553V548V543H999.393V548V553H1019.18ZM979.607 553V548V543H959.821V548V553H979.607ZM940.036 553V548V543H920.25V548V553H940.036ZM900.464 553V548V543H880.679V548V553H900.464ZM860.893 553V548V543H841.107V548V553H860.893ZM821.321 553V548V543H801.536V548V553H821.321ZM781.75 553V548V543H761.964V548V553H781.75ZM742.179 553V548V543H722.393V548V553H742.179ZM702.607 553V548V543H682.821V548V553H702.607ZM663.036 553V548V543H643.25V548V553H663.036ZM623.464 553V548V543H603.679V548V553H623.464ZM583.893 553V548V543H564.107V548V553H583.893ZM544.322 553V548V543H524.536V548V553H544.322ZM504.75 553V548V543H484.964V548V553H504.75ZM465.179 553V548V543H445.393V548V553H465.179ZM425.607 553V548V543H405.822V548V553H425.607ZM386.036 553V548V543H366.25V548V553H386.036ZM346.464 553V548V543H326.679V548V553H346.464ZM306.893 553V548V543H287.107V548V553H306.893ZM267.322 553V548V543H247.536V548V553H267.322ZM227.75 553V548V543H207.965V548V553H227.75ZM188.179 553V548V543H168.393V548V553H188.179ZM148.607 553V548V543H128.822V548V553H148.607ZM109.036 553V548V543H89.2503V548V553H109.036ZM69.4645 553V548V543H49.6787V548V553H69.4645Z"/>
</mask>
<path d="M10 533V532H9V533H10ZM29.8929 553V554H30.8929V553H29.8929ZM29.8929 543H30.8929V542H29.8929V543ZM20 543L19 543L19 544H20V543ZM20 533L21 533L21 532H20V533ZM10 513H9V514H10V513ZM20 513V514H21V513H20ZM20 493H21V492H20V493ZM10 493V492H9V493H10ZM10 473H9V474H10V473ZM20 473V474H21V473H20ZM20 453H21V452H20V453ZM10 453V452H9V453H10ZM10 433H9V434H10V433ZM20 433V434H21V433H20ZM20 413H21V412H20V413ZM10 413V412H9V413H10ZM10 393H9V394H10V393ZM20 393V394H21V393H20ZM20 373H21V372H20V373ZM10 373V372H9V373H10ZM10 353H9V354H10V353ZM20 353V354H21V353H20ZM20 333H21V332H20V333ZM10 333V332H9V333H10ZM10 313H9V314H10V313ZM20 313V314H21V313H20ZM20 293H21V292H20V293ZM10 293V292H9V293H10ZM10 273H9V274H10V273ZM20 273V274H21V273H20ZM20 253H21V252H20V253ZM10 253V252H9V253H10ZM10 233H9V234H10V233ZM20 233V234H21V233H20ZM20 213H21V212H20V213ZM10 213V212H9V213H10ZM10 193H9V194H10V193ZM20 193V194H21V193H20ZM20 173H21V172H20V173ZM10 173V172H9V173H10ZM10 153H9V154H10V153ZM20 153V154H21V153H20ZM20 133H21V132H20V133ZM10 133V132H9V133H10ZM10 113H9V114H10V113ZM20 113V114H21V113H20ZM20 93H21V92H20V93ZM10 93V92H9V93H10ZM10 73H9V74H10V73ZM20 73V74H21V73H20ZM20 53H21V52H20V53ZM10 53V52H9V53H10ZM10 33H9V34H10V33ZM20 33V34H21V33H20ZM20 23L20 22L19 22V23H20ZM29.8929 23L29.8929 24L30.8929 24V23H29.8929ZM29.8929 13H30.8929V12H29.8929V13ZM49.6786 13V12H48.6786V13H49.6786ZM49.6786 23H48.6786V24H49.6786V23ZM69.4643 23V24H70.4643V23H69.4643ZM69.4643 13H70.4643V12H69.4643V13ZM89.25 13V12H88.25V13H89.25ZM89.25 23H88.25V24H89.25V23ZM109.036 23V24H110.036V23H109.036ZM109.036 13H110.036V12H109.036V13ZM128.821 13V12H127.821V13H128.821ZM128.821 23H127.821V24H128.821V23ZM148.607 23V24H149.607V23H148.607ZM148.607 13H149.607V12H148.607V13ZM168.393 13V12H167.393V13H168.393ZM168.393 23H167.393V24H168.393V23ZM188.179 23V24H189.179V23H188.179ZM188.179 13H189.179V12H188.179V13ZM207.964 13V12H206.964V13H207.964ZM207.964 23H206.964V24H207.964V23ZM227.75 23V24H228.75V23H227.75ZM227.75 13H228.75V12H227.75V13ZM247.536 13V12H246.536V13H247.536ZM247.536 23H246.536V24H247.536V23ZM267.321 23V24H268.321V23H267.321ZM267.321 13H268.321V12H267.321V13ZM287.107 13V12H286.107V13H287.107ZM287.107 23H286.107V24H287.107V23ZM306.893 23V24H307.893V23H306.893ZM306.893 13H307.893V12H306.893V13ZM326.679 13V12H325.679V13H326.679ZM326.679 23H325.679V24H326.679V23ZM346.464 23V24H347.464V23H346.464ZM346.464 13H347.464V12H346.464V13ZM366.25 13V12H365.25V13H366.25ZM366.25 23H365.25V24H366.25V23ZM386.036 23V24H387.036V23H386.036ZM386.036 13H387.036V12H386.036V13ZM405.821 13V12H404.821V13H405.821ZM405.821 23H404.821V24H405.821V23ZM425.607 23V24H426.607V23H425.607ZM425.607 13H426.607V12H425.607V13ZM445.393 13V12H444.393V13H445.393ZM445.393 23H444.393V24H445.393V23ZM465.179 23V24H466.179V23H465.179ZM465.179 13H466.179V12H465.179V13ZM484.964 13V12H483.964V13H484.964ZM484.964 23H483.964V24H484.964V23ZM504.75 23V24H505.75V23H504.75ZM504.75 13H505.75V12H504.75V13ZM524.536 13V12H523.536V13H524.536ZM524.536 23H523.536V24H524.536V23ZM544.321 23V24H545.321V23H544.321ZM544.321 13H545.321V12H544.321V13ZM564.107 13V12H563.107V13H564.107ZM564.107 23H563.107V24H564.107V23ZM583.893 23V24H584.893V23H583.893ZM583.893 13H584.893V12H583.893V13ZM603.678 13V12H602.678V13H603.678ZM603.678 23H602.678V24H603.678V23ZM623.464 23V24H624.464V23H623.464ZM623.464 13H624.464V12H623.464V13ZM643.25 13V12H642.25V13H643.25ZM643.25 23H642.25V24H643.25V23ZM663.036 23V24H664.036V23H663.036ZM663.036 13H664.036V12H663.036V13ZM682.821 13V12H681.821V13H682.821ZM682.821 23H681.821V24H682.821V23ZM702.607 23V24H703.607V23H702.607ZM702.607 13H703.607V12H702.607V13ZM722.393 13V12H721.393V13H722.393ZM722.393 23H721.393V24H722.393V23ZM742.178 23V24H743.178V23H742.178ZM742.178 13H743.178V12H742.178V13ZM761.964 13V12H760.964V13H761.964ZM761.964 23H760.964V24H761.964V23ZM781.75 23V24H782.75V23H781.75ZM781.75 13H782.75V12H781.75V13ZM801.536 13V12H800.536V13H801.536ZM801.536 23H800.536V24H801.536V23ZM821.321 23V24H822.321V23H821.321ZM821.321 13H822.321V12H821.321V13ZM841.107 13V12H840.107V13H841.107ZM841.107 23H840.107V24H841.107V23ZM860.893 23V24H861.893V23H860.893ZM860.893 13H861.893V12H860.893V13ZM880.678 13V12H879.678V13H880.678ZM880.678 23H879.678V24H880.678V23ZM900.464 23V24H901.464V23H900.464ZM900.464 13H901.464V12H900.464V13ZM920.25 13V12H919.25V13H920.25ZM920.25 23H919.25V24H920.25V23ZM940.035 23V24H941.035V23H940.035ZM940.035 13H941.035V12H940.035V13ZM959.821 13V12H958.821V13H959.821ZM959.821 23H958.821V24H959.821V23ZM979.607 23V24H980.607V23H979.607ZM979.607 13H980.607V12H979.607V13ZM999.393 13V12H998.393V13H999.393ZM999.393 23H998.393V24H999.393V23ZM1019.18 23V24H1020.18V23H1019.18ZM1019.18 13H1020.18V12H1019.18V13ZM1038.96 13V12H1037.96V13H1038.96ZM1038.96 23H1037.96V24H1038.96V23ZM1058.75 23V24H1059.75V23H1058.75ZM1058.75 13H1059.75V12H1058.75V13ZM1078.54 13V12H1077.54V13H1078.54ZM1078.54 23H1077.54V24H1078.54V23ZM1098.32 23V24H1099.32V23H1098.32ZM1098.32 13H1099.32V12H1098.32V13ZM1118.11 13V12H1117.11V13H1118.11ZM1118.11 23H1117.11V24H1118.11V23ZM1128 23H1129V22H1128V23ZM1128 33H1127V34H1128V33ZM1138 33V34H1139V33H1138ZM1138 53H1139V52H1138V53ZM1128 53V52H1127V53H1128ZM1128 73H1127V74H1128V73ZM1138 73V74H1139V73H1138ZM1138 93H1139V92H1138V93ZM1128 93V92H1127V93H1128ZM1128 113H1127V114H1128V113ZM1138 113V114H1139V113H1138ZM1138 133H1139V132H1138V133ZM1128 133V132H1127V133H1128ZM1128 153H1127V154H1128V153ZM1138 153V154H1139V153H1138ZM1138 173H1139V172H1138V173ZM1128 173V172H1127V173H1128ZM1128 193H1127V194H1128V193ZM1138 193V194H1139V193H1138ZM1138 213H1139V212H1138V213ZM1128 213V212H1127V213H1128ZM1128 233H1127V234H1128V233ZM1138 233V234H1139V233H1138ZM1138 253H1139V252H1138V253ZM1128 253V252H1127V253H1128ZM1128 273H1127V274H1128V273ZM1138 273V274H1139V273H1138ZM1138 293H1139V292H1138V293ZM1128 293V292H1127V293H1128ZM1128 313H1127V314H1128V313ZM1138 313V314H1139V313H1138ZM1138 333H1139V332H1138V333ZM1128 333V332H1127V333H1128ZM1128 353H1127V354H1128V353ZM1138 353V354H1139V353H1138ZM1138 373H1139V372H1138V373ZM1128 373V372H1127V373H1128ZM1128 393H1127V394H1128V393ZM1138 393V394H1139V393H1138ZM1138 413H1139V412H1138V413ZM1128 413V412H1127V413H1128ZM1128 433H1127V434H1128V433ZM1138 433V434H1139V433H1138ZM1138 453H1139V452H1138V453ZM1128 453V452H1127V453H1128ZM1128 473H1127V474H1128V473ZM1138 473V474H1139V473H1138ZM1138 493H1139V492H1138V493ZM1128 493V492H1127V493H1128ZM1128 513H1127V514H1128V513ZM1138 513V514H1139V513H1138ZM1138 533H1139V532H1138V533ZM1128 533V532H1127V533H1128ZM1128 543V544H1129V543H1128ZM1118.11 543V542H1117.11V543H1118.11ZM1118.11 553H1117.11V554H1118.11V553ZM1098.32 553V554H1099.32V553H1098.32ZM1098.32 543H1099.32V542H1098.32V543ZM1078.54 543V542H1077.54V543H1078.54ZM1078.54 553H1077.54V554H1078.54V553ZM1058.75 553V554H1059.75V553H1058.75ZM1058.75 543H1059.75V542H1058.75V543ZM1038.96 543V542H1037.96V543H1038.96ZM1038.96 553H1037.96V554H1038.96V553ZM1019.18 553V554H1020.18V553H1019.18ZM1019.18 543H1020.18V542H1019.18V543ZM999.393 543V542H998.393V543H999.393ZM999.393 553H998.393V554H999.393V553ZM979.607 553V554H980.607V553H979.607ZM979.607 543H980.607V542H979.607V543ZM959.821 543V542H958.821V543H959.821ZM959.821 553H958.821V554H959.821V553ZM940.036 553V554H941.036V553H940.036ZM940.036 543H941.036V542H940.036V543ZM920.25 543V542H919.25V543H920.25ZM920.25 553H919.25V554H920.25V553ZM900.464 553V554H901.464V553H900.464ZM900.464 543H901.464V542H900.464V543ZM880.679 543V542H879.679V543H880.679ZM880.679 553H879.679V554H880.679V553ZM860.893 553V554H861.893V553H860.893ZM860.893 543H861.893V542H860.893V543ZM841.107 543V542H840.107V543H841.107ZM841.107 553H840.107V554H841.107V553ZM821.321 553V554H822.321V553H821.321ZM821.321 543H822.321V542H821.321V543ZM801.536 543V542H800.536V543H801.536ZM801.536 553H800.536V554H801.536V553ZM781.75 553V554H782.75V553H781.75ZM781.75 543H782.75V542H781.75V543ZM761.964 543V542H760.964V543H761.964ZM761.964 553H760.964V554H761.964V553ZM742.179 553V554H743.179V553H742.179ZM742.179 543H743.179V542H742.179V543ZM722.393 543V542H721.393V543H722.393ZM722.393 553H721.393V554H722.393V553ZM702.607 553V554H703.607V553H702.607ZM702.607 543H703.607V542H702.607V543ZM682.821 543V542H681.821V543H682.821ZM682.821 553H681.821V554H682.821V553ZM663.036 553V554H664.036V553H663.036ZM663.036 543H664.036V542H663.036V543ZM643.25 543V542H642.25V543H643.25ZM643.25 553H642.25V554H643.25V553ZM623.464 553V554H624.464V553H623.464ZM623.464 543H624.464V542H623.464V543ZM603.679 543V542H602.679V543H603.679ZM603.679 553H602.679V554H603.679V553ZM583.893 553V554H584.893V553H583.893ZM583.893 543H584.893V542H583.893V543ZM564.107 543V542H563.107V543H564.107ZM564.107 553H563.107V554H564.107V553ZM544.322 553V554H545.322V553H544.322ZM544.322 543H545.322V542H544.322V543ZM524.536 543V542H523.536V543H524.536ZM524.536 553H523.536V554H524.536V553ZM504.75 553V554H505.75V553H504.75ZM504.75 543H505.75V542H504.75V543ZM484.964 543V542H483.964V543H484.964ZM484.964 553H483.964V554H484.964V553ZM465.179 553V554H466.179V553H465.179ZM465.179 543H466.179V542H465.179V543ZM445.393 543V542H444.393V543H445.393ZM445.393 553H444.393V554H445.393V553ZM425.607 553V554H426.607V553H425.607ZM425.607 543H426.607V542H425.607V543ZM405.822 543V542H404.822V543H405.822ZM405.822 553H404.822V554H405.822V553ZM386.036 553V554H387.036V553H386.036ZM386.036 543H387.036V542H386.036V543ZM366.25 543V542H365.25V543H366.25ZM366.25 553H365.25V554H366.25V553ZM346.464 553V554H347.464V553H346.464ZM346.464 543H347.464V542H346.464V543ZM326.679 543V542H325.679V543H326.679ZM326.679 553H325.679V554H326.679V553ZM306.893 553V554H307.893V553H306.893ZM306.893 543H307.893V542H306.893V543ZM287.107 543V542H286.107V543H287.107ZM287.107 553H286.107V554H287.107V553ZM267.322 553V554H268.322V553H267.322ZM267.322 543H268.322V542H267.322V543ZM247.536 543V542H246.536V543H247.536ZM247.536 553H246.536V554H247.536V553ZM227.75 553V554H228.75V553H227.75ZM227.75 543H228.75V542H227.75V543ZM207.965 543V542H206.965V543H207.965ZM207.965 553H206.965V554H207.965V553ZM188.179 553V554H189.179V553H188.179ZM188.179 543H189.179V542H188.179V543ZM168.393 543V542H167.393V543H168.393ZM168.393 553H167.393V554H168.393V553ZM148.607 553V554H149.607V553H148.607ZM148.607 543H149.607V542H148.607V543ZM128.822 543V542H127.822V543H128.822ZM128.822 553H127.822V554H128.822V553ZM109.036 553V554H110.036V553H109.036ZM109.036 543H110.036V542H109.036V543ZM89.2503 543V542H88.2503V543H89.2503ZM89.2503 553H88.2503V554H89.2503V553ZM69.4645 553V554H70.4645V553H69.4645ZM69.4645 543H70.4645V542H69.4645V543ZM49.6787 543V542H48.6787V543H49.6787ZM49.6787 553H48.6787V554H49.6787V553ZM11 543V533H9V543H11ZM20 552C15.0294 552 11 547.971 11 543H9C9 549.075 13.9249 554 20 554V552ZM29.8929 552H20V554H29.8929V552ZM30.8929 553V548H28.8929V553H30.8929ZM30.8929 548V543H28.8929V548H30.8929ZM29.8929 542H20V544H29.8929V542ZM21 543L21 533L19 533L19 543L21 543ZM20 532H15V534H20V532ZM15 532H10V534H15V532ZM10 514H15V512H10V514ZM15 514H20V512H15V514ZM21 513V493H19V513H21ZM20 492H15V494H20V492ZM15 492H10V494H15V492ZM11 513V493H9V513H11ZM10 474H15V472H10V474ZM15 474H20V472H15V474ZM21 473V453H19V473H21ZM20 452H15V454H20V452ZM15 452H10V454H15V452ZM11 473V453H9V473H11ZM10 434H15V432H10V434ZM15 434H20V432H15V434ZM21 433V413H19V433H21ZM20 412H15V414H20V412ZM15 412H10V414H15V412ZM11 433V413H9V433H11ZM10 394H15V392H10V394ZM15 394H20V392H15V394ZM21 393V373H19V393H21ZM20 372H15V374H20V372ZM15 372H10V374H15V372ZM11 393V373H9V393H11ZM10 354H15V352H10V354ZM15 354H20V352H15V354ZM21 353V333H19V353H21ZM20 332H15V334H20V332ZM15 332H10V334H15V332ZM11 353V333H9V353H11ZM10 314H15V312H10V314ZM15 314H20V312H15V314ZM21 313V293H19V313H21ZM20 292H15V294H20V292ZM15 292H10V294H15V292ZM11 313V293H9V313H11ZM10 274H15V272H10V274ZM15 274H20V272H15V274ZM21 273V253H19V273H21ZM20 252H15V254H20V252ZM15 252H10V254H15V252ZM11 273V253H9V273H11ZM10 234H15V232H10V234ZM15 234H20V232H15V234ZM21 233V213H19V233H21ZM20 212H15V214H20V212ZM15 212H10V214H15V212ZM11 233V213H9V233H11ZM10 194H15V192H10V194ZM15 194H20V192H15V194ZM21 193V173H19V193H21ZM20 172H15V174H20V172ZM15 172H10V174H15V172ZM11 193V173H9V193H11ZM10 154H15V152H10V154ZM15 154H20V152H15V154ZM21 153V133H19V153H21ZM20 132H15V134H20V132ZM15 132H10V134H15V132ZM11 153V133H9V153H11ZM10 114H15V112H10V114ZM15 114H20V112H15V114ZM21 113V93H19V113H21ZM20 92H15V94H20V92ZM15 92H10V94H15V92ZM11 113V93H9V113H11ZM10 74H15V72H10V74ZM15 74H20V72H15V74ZM21 73V53H19V73H21ZM20 52H15V54H20V52ZM15 52H10V54H15V52ZM11 73V53H9V73H11ZM10 34H15V32H10V34ZM15 34H20V32H15V34ZM21 33V23H19V33H21ZM20 24L29.8929 24L29.8929 22L20 22L20 24ZM30.8929 23V18H28.8929V23H30.8929ZM30.8929 18V13H28.8929V18H30.8929ZM20 14H29.8929V12H20V14ZM11 23C11 18.0294 15.0294 14 20 14V12C13.9249 12 9 16.9249 9 23H11ZM11 33V23H9V33H11ZM48.6786 13V18H50.6786V13H48.6786ZM48.6786 18V23H50.6786V18H48.6786ZM49.6786 24H69.4643V22H49.6786V24ZM70.4643 23V18H68.4643V23H70.4643ZM70.4643 18V13H68.4643V18H70.4643ZM49.6786 14H69.4643V12H49.6786V14ZM88.25 13V18H90.25V13H88.25ZM88.25 18V23H90.25V18H88.25ZM89.25 24H109.036V22H89.25V24ZM110.036 23V18H108.036V23H110.036ZM110.036 18V13H108.036V18H110.036ZM89.25 14H109.036V12H89.25V14ZM127.821 13V18H129.821V13H127.821ZM127.821 18V23H129.821V18H127.821ZM128.821 24H148.607V22H128.821V24ZM149.607 23V18H147.607V23H149.607ZM149.607 18V13H147.607V18H149.607ZM128.821 14H148.607V12H128.821V14ZM167.393 13V18H169.393V13H167.393ZM167.393 18V23H169.393V18H167.393ZM168.393 24H188.179V22H168.393V24ZM189.179 23V18H187.179V23H189.179ZM189.179 18V13H187.179V18H189.179ZM168.393 14H188.179V12H168.393V14ZM206.964 13V18H208.964V13H206.964ZM206.964 18V23H208.964V18H206.964ZM207.964 24H227.75V22H207.964V24ZM228.75 23V18H226.75V23H228.75ZM228.75 18V13H226.75V18H228.75ZM207.964 14H227.75V12H207.964V14ZM246.536 13V18H248.536V13H246.536ZM246.536 18V23H248.536V18H246.536ZM247.536 24H267.321V22H247.536V24ZM268.321 23V18H266.321V23H268.321ZM268.321 18V13H266.321V18H268.321ZM247.536 14H267.321V12H247.536V14ZM286.107 13V18H288.107V13H286.107ZM286.107 18V23H288.107V18H286.107ZM287.107 24H306.893V22H287.107V24ZM307.893 23V18H305.893V23H307.893ZM307.893 18V13H305.893V18H307.893ZM287.107 14H306.893V12H287.107V14ZM325.679 13V18H327.679V13H325.679ZM325.679 18V23H327.679V18H325.679ZM326.679 24H346.464V22H326.679V24ZM347.464 23V18H345.464V23H347.464ZM347.464 18V13H345.464V18H347.464ZM326.679 14H346.464V12H326.679V14ZM365.25 13V18H367.25V13H365.25ZM365.25 18V23H367.25V18H365.25ZM366.25 24H386.036V22H366.25V24ZM387.036 23V18H385.036V23H387.036ZM387.036 18V13H385.036V18H387.036ZM366.25 14H386.036V12H366.25V14ZM404.821 13V18H406.821V13H404.821ZM404.821 18V23H406.821V18H404.821ZM405.821 24H425.607V22H405.821V24ZM426.607 23V18H424.607V23H426.607ZM426.607 18V13H424.607V18H426.607ZM405.821 14H425.607V12H405.821V14ZM444.393 13V18H446.393V13H444.393ZM444.393 18V23H446.393V18H444.393ZM445.393 24H465.179V22H445.393V24ZM466.179 23V18H464.179V23H466.179ZM466.179 18V13H464.179V18H466.179ZM445.393 14H465.179V12H445.393V14ZM483.964 13V18H485.964V13H483.964ZM483.964 18V23H485.964V18H483.964ZM484.964 24H504.75V22H484.964V24ZM505.75 23V18H503.75V23H505.75ZM505.75 18V13H503.75V18H505.75ZM484.964 14H504.75V12H484.964V14ZM523.536 13V18H525.536V13H523.536ZM523.536 18V23H525.536V18H523.536ZM524.536 24H544.321V22H524.536V24ZM545.321 23V18H543.321V23H545.321ZM545.321 18V13H543.321V18H545.321ZM524.536 14H544.321V12H524.536V14ZM563.107 13V18H565.107V13H563.107ZM563.107 18V23H565.107V18H563.107ZM564.107 24H583.893V22H564.107V24ZM584.893 23V18H582.893V23H584.893ZM584.893 18V13H582.893V18H584.893ZM564.107 14H583.893V12H564.107V14ZM602.678 13V18H604.678V13H602.678ZM602.678 18V23H604.678V18H602.678ZM603.678 24H623.464V22H603.678V24ZM624.464 23V18H622.464V23H624.464ZM624.464 18V13H622.464V18H624.464ZM603.678 14H623.464V12H603.678V14ZM642.25 13V18H644.25V13H642.25ZM642.25 18V23H644.25V18H642.25ZM643.25 24H663.036V22H643.25V24ZM664.036 23V18H662.036V23H664.036ZM664.036 18V13H662.036V18H664.036ZM643.25 14H663.036V12H643.25V14ZM681.821 13V18H683.821V13H681.821ZM681.821 18V23H683.821V18H681.821ZM682.821 24H702.607V22H682.821V24ZM703.607 23V18H701.607V23H703.607ZM703.607 18V13H701.607V18H703.607ZM682.821 14H702.607V12H682.821V14ZM721.393 13V18H723.393V13H721.393ZM721.393 18V23H723.393V18H721.393ZM722.393 24H742.178V22H722.393V24ZM743.178 23V18H741.178V23H743.178ZM743.178 18V13H741.178V18H743.178ZM722.393 14H742.178V12H722.393V14ZM760.964 13V18H762.964V13H760.964ZM760.964 18V23H762.964V18H760.964ZM761.964 24H781.75V22H761.964V24ZM782.75 23V18H780.75V23H782.75ZM782.75 18V13H780.75V18H782.75ZM761.964 14H781.75V12H761.964V14ZM800.536 13V18H802.536V13H800.536ZM800.536 18V23H802.536V18H800.536ZM801.536 24H821.321V22H801.536V24ZM822.321 23V18H820.321V23H822.321ZM822.321 18V13H820.321V18H822.321ZM801.536 14H821.321V12H801.536V14ZM840.107 13V18H842.107V13H840.107ZM840.107 18V23H842.107V18H840.107ZM841.107 24H860.893V22H841.107V24ZM861.893 23V18H859.893V23H861.893ZM861.893 18V13H859.893V18H861.893ZM841.107 14H860.893V12H841.107V14ZM879.678 13V18H881.678V13H879.678ZM879.678 18V23H881.678V18H879.678ZM880.678 24H900.464V22H880.678V24ZM901.464 23V18H899.464V23H901.464ZM901.464 18V13H899.464V18H901.464ZM880.678 14H900.464V12H880.678V14ZM919.25 13V18H921.25V13H919.25ZM919.25 18V23H921.25V18H919.25ZM920.25 24H940.035V22H920.25V24ZM941.035 23V18H939.035V23H941.035ZM941.035 18V13H939.035V18H941.035ZM920.25 14H940.035V12H920.25V14ZM958.821 13V18H960.821V13H958.821ZM958.821 18V23H960.821V18H958.821ZM959.821 24H979.607V22H959.821V24ZM980.607 23V18H978.607V23H980.607ZM980.607 18V13H978.607V18H980.607ZM959.821 14H979.607V12H959.821V14ZM998.393 13V18H1000.39V13H998.393ZM998.393 18V23H1000.39V18H998.393ZM999.393 24H1019.18V22H999.393V24ZM1020.18 23V18H1018.18V23H1020.18ZM1020.18 18V13H1018.18V18H1020.18ZM999.393 14H1019.18V12H999.393V14ZM1037.96 13V18H1039.96V13H1037.96ZM1037.96 18V23H1039.96V18H1037.96ZM1038.96 24H1058.75V22H1038.96V24ZM1059.75 23V18H1057.75V23H1059.75ZM1059.75 18V13H1057.75V18H1059.75ZM1038.96 14H1058.75V12H1038.96V14ZM1077.54 13V18H1079.54V13H1077.54ZM1077.54 18V23H1079.54V18H1077.54ZM1078.54 24H1098.32V22H1078.54V24ZM1099.32 23V18H1097.32V23H1099.32ZM1099.32 18V13H1097.32V18H1099.32ZM1078.54 14H1098.32V12H1078.54V14ZM1117.11 13V18H1119.11V13H1117.11ZM1117.11 18V23H1119.11V18H1117.11ZM1118.11 24H1128V22H1118.11V24ZM1127 23V33H1129V23H1127ZM1128 34H1133V32H1128V34ZM1133 34H1138V32H1133V34ZM1137 23V33H1139V23H1137ZM1128 14C1132.97 14 1137 18.0294 1137 23H1139C1139 16.9249 1134.08 12 1128 12V14ZM1118.11 14H1128V12H1118.11V14ZM1138 52H1133V54H1138V52ZM1133 52H1128V54H1133V52ZM1127 53V73H1129V53H1127ZM1128 74H1133V72H1128V74ZM1133 74H1138V72H1133V74ZM1137 53V73H1139V53H1137ZM1138 92H1133V94H1138V92ZM1133 92H1128V94H1133V92ZM1127 93V113H1129V93H1127ZM1128 114H1133V112H1128V114ZM1133 114H1138V112H1133V114ZM1137 93V113H1139V93H1137ZM1138 132H1133V134H1138V132ZM1133 132H1128V134H1133V132ZM1127 133V153H1129V133H1127ZM1128 154H1133V152H1128V154ZM1133 154H1138V152H1133V154ZM1137 133V153H1139V133H1137ZM1138 172H1133V174H1138V172ZM1133 172H1128V174H1133V172ZM1127 173V193H1129V173H1127ZM1128 194H1133V192H1128V194ZM1133 194H1138V192H1133V194ZM1137 173V193H1139V173H1137ZM1138 212H1133V214H1138V212ZM1133 212H1128V214H1133V212ZM1127 213V233H1129V213H1127ZM1128 234H1133V232H1128V234ZM1133 234H1138V232H1133V234ZM1137 213V233H1139V213H1137ZM1138 252H1133V254H1138V252ZM1133 252H1128V254H1133V252ZM1127 253V273H1129V253H1127ZM1128 274H1133V272H1128V274ZM1133 274H1138V272H1133V274ZM1137 253V273H1139V253H1137ZM1138 292H1133V294H1138V292ZM1133 292H1128V294H1133V292ZM1127 293V313H1129V293H1127ZM1128 314H1133V312H1128V314ZM1133 314H1138V312H1133V314ZM1137 293V313H1139V293H1137ZM1138 332H1133V334H1138V332ZM1133 332H1128V334H1133V332ZM1127 333V353H1129V333H1127ZM1128 354H1133V352H1128V354ZM1133 354H1138V352H1133V354ZM1137 333V353H1139V333H1137ZM1138 372H1133V374H1138V372ZM1133 372H1128V374H1133V372ZM1127 373V393H1129V373H1127ZM1128 394H1133V392H1128V394ZM1133 394H1138V392H1133V394ZM1137 373V393H1139V373H1137ZM1138 412H1133V414H1138V412ZM1133 412H1128V414H1133V412ZM1127 413V433H1129V413H1127ZM1128 434H1133V432H1128V434ZM1133 434H1138V432H1133V434ZM1137 413V433H1139V413H1137ZM1138 452H1133V454H1138V452ZM1133 452H1128V454H1133V452ZM1127 453V473H1129V453H1127ZM1128 474H1133V472H1128V474ZM1133 474H1138V472H1133V474ZM1137 453V473H1139V453H1137ZM1138 492H1133V494H1138V492ZM1133 492H1128V494H1133V492ZM1127 493V513H1129V493H1127ZM1128 514H1133V512H1128V514ZM1133 514H1138V512H1133V514ZM1137 493V513H1139V493H1137ZM1138 532H1133V534H1138V532ZM1133 532H1128V534H1133V532ZM1127 533V543H1129V533H1127ZM1128 542H1118.11V544H1128V542ZM1117.11 543V548H1119.11V543H1117.11ZM1117.11 548V553H1119.11V548H1117.11ZM1128 552H1118.11V554H1128V552ZM1137 543C1137 547.971 1132.97 552 1128 552V554C1134.08 554 1139 549.075 1139 543H1137ZM1137 533V543H1139V533H1137ZM1099.32 553V548H1097.32V553H1099.32ZM1099.32 548V543H1097.32V548H1099.32ZM1098.32 542H1078.54V544H1098.32V542ZM1077.54 543V548H1079.54V543H1077.54ZM1077.54 548V553H1079.54V548H1077.54ZM1098.32 552H1078.54V554H1098.32V552ZM1059.75 553V548H1057.75V553H1059.75ZM1059.75 548V543H1057.75V548H1059.75ZM1058.75 542H1038.96V544H1058.75V542ZM1037.96 543V548H1039.96V543H1037.96ZM1037.96 548V553H1039.96V548H1037.96ZM1058.75 552H1038.96V554H1058.75V552ZM1020.18 553V548H1018.18V553H1020.18ZM1020.18 548V543H1018.18V548H1020.18ZM1019.18 542H999.393V544H1019.18V542ZM998.393 543V548H1000.39V543H998.393ZM998.393 548V553H1000.39V548H998.393ZM1019.18 552H999.393V554H1019.18V552ZM980.607 553V548H978.607V553H980.607ZM980.607 548V543H978.607V548H980.607ZM979.607 542H959.821V544H979.607V542ZM958.821 543V548H960.821V543H958.821ZM958.821 548V553H960.821V548H958.821ZM979.607 552H959.821V554H979.607V552ZM941.036 553V548H939.036V553H941.036ZM941.036 548V543H939.036V548H941.036ZM940.036 542H920.25V544H940.036V542ZM919.25 543V548H921.25V543H919.25ZM919.25 548V553H921.25V548H919.25ZM940.036 552H920.25V554H940.036V552ZM901.464 553V548H899.464V553H901.464ZM901.464 548V543H899.464V548H901.464ZM900.464 542H880.679V544H900.464V542ZM879.679 543V548H881.679V543H879.679ZM879.679 548V553H881.679V548H879.679ZM900.464 552H880.679V554H900.464V552ZM861.893 553V548H859.893V553H861.893ZM861.893 548V543H859.893V548H861.893ZM860.893 542H841.107V544H860.893V542ZM840.107 543V548H842.107V543H840.107ZM840.107 548V553H842.107V548H840.107ZM860.893 552H841.107V554H860.893V552ZM822.321 553V548H820.321V553H822.321ZM822.321 548V543H820.321V548H822.321ZM821.321 542H801.536V544H821.321V542ZM800.536 543V548H802.536V543H800.536ZM800.536 548V553H802.536V548H800.536ZM821.321 552H801.536V554H821.321V552ZM782.75 553V548H780.75V553H782.75ZM782.75 548V543H780.75V548H782.75ZM781.75 542H761.964V544H781.75V542ZM760.964 543V548H762.964V543H760.964ZM760.964 548V553H762.964V548H760.964ZM781.75 552H761.964V554H781.75V552ZM743.179 553V548H741.179V553H743.179ZM743.179 548V543H741.179V548H743.179ZM742.179 542H722.393V544H742.179V542ZM721.393 543V548H723.393V543H721.393ZM721.393 548V553H723.393V548H721.393ZM742.179 552H722.393V554H742.179V552ZM703.607 553V548H701.607V553H703.607ZM703.607 548V543H701.607V548H703.607ZM702.607 542H682.821V544H702.607V542ZM681.821 543V548H683.821V543H681.821ZM681.821 548V553H683.821V548H681.821ZM702.607 552H682.821V554H702.607V552ZM664.036 553V548H662.036V553H664.036ZM664.036 548V543H662.036V548H664.036ZM663.036 542H643.25V544H663.036V542ZM642.25 543V548H644.25V543H642.25ZM642.25 548V553H644.25V548H642.25ZM663.036 552H643.25V554H663.036V552ZM624.464 553V548H622.464V553H624.464ZM624.464 548V543H622.464V548H624.464ZM623.464 542H603.679V544H623.464V542ZM602.679 543V548H604.679V543H602.679ZM602.679 548V553H604.679V548H602.679ZM623.464 552H603.679V554H623.464V552ZM584.893 553V548H582.893V553H584.893ZM584.893 548V543H582.893V548H584.893ZM583.893 542H564.107V544H583.893V542ZM563.107 543V548H565.107V543H563.107ZM563.107 548V553H565.107V548H563.107ZM583.893 552H564.107V554H583.893V552ZM545.322 553V548H543.322V553H545.322ZM545.322 548V543H543.322V548H545.322ZM544.322 542H524.536V544H544.322V542ZM523.536 543V548H525.536V543H523.536ZM523.536 548V553H525.536V548H523.536ZM544.322 552H524.536V554H544.322V552ZM505.75 553V548H503.75V553H505.75ZM505.75 548V543H503.75V548H505.75ZM504.75 542H484.964V544H504.75V542ZM483.964 543V548H485.964V543H483.964ZM483.964 548V553H485.964V548H483.964ZM504.75 552H484.964V554H504.75V552ZM466.179 553V548H464.179V553H466.179ZM466.179 548V543H464.179V548H466.179ZM465.179 542H445.393V544H465.179V542ZM444.393 543V548H446.393V543H444.393ZM444.393 548V553H446.393V548H444.393ZM465.179 552H445.393V554H465.179V552ZM426.607 553V548H424.607V553H426.607ZM426.607 548V543H424.607V548H426.607ZM425.607 542H405.822V544H425.607V542ZM404.822 543V548H406.822V543H404.822ZM404.822 548V553H406.822V548H404.822ZM425.607 552H405.822V554H425.607V552ZM387.036 553V548H385.036V553H387.036ZM387.036 548V543H385.036V548H387.036ZM386.036 542H366.25V544H386.036V542ZM365.25 543V548H367.25V543H365.25ZM365.25 548V553H367.25V548H365.25ZM386.036 552H366.25V554H386.036V552ZM347.464 553V548H345.464V553H347.464ZM347.464 548V543H345.464V548H347.464ZM346.464 542H326.679V544H346.464V542ZM325.679 543V548H327.679V543H325.679ZM325.679 548V553H327.679V548H325.679ZM346.464 552H326.679V554H346.464V552ZM307.893 553V548H305.893V553H307.893ZM307.893 548V543H305.893V548H307.893ZM306.893 542H287.107V544H306.893V542ZM286.107 543V548H288.107V543H286.107ZM286.107 548V553H288.107V548H286.107ZM306.893 552H287.107V554H306.893V552ZM268.322 553V548H266.322V553H268.322ZM268.322 548V543H266.322V548H268.322ZM267.322 542H247.536V544H267.322V542ZM246.536 543V548H248.536V543H246.536ZM246.536 548V553H248.536V548H246.536ZM267.322 552H247.536V554H267.322V552ZM228.75 553V548H226.75V553H228.75ZM228.75 548V543H226.75V548H228.75ZM227.75 542H207.965V544H227.75V542ZM206.965 543V548H208.965V543H206.965ZM206.965 548V553H208.965V548H206.965ZM227.75 552H207.965V554H227.75V552ZM189.179 553V548H187.179V553H189.179ZM189.179 548V543H187.179V548H189.179ZM188.179 542H168.393V544H188.179V542ZM167.393 543V548H169.393V543H167.393ZM167.393 548V553H169.393V548H167.393ZM188.179 552H168.393V554H188.179V552ZM149.607 553V548H147.607V553H149.607ZM149.607 548V543H147.607V548H149.607ZM148.607 542H128.822V544H148.607V542ZM127.822 543V548H129.822V543H127.822ZM127.822 548V553H129.822V548H127.822ZM148.607 552H128.822V554H148.607V552ZM110.036 553V548H108.036V553H110.036ZM110.036 548V543H108.036V548H110.036ZM109.036 542H89.2503V544H109.036V542ZM88.2503 543V548H90.2503V543H88.2503ZM88.2503 548V553H90.2503V548H88.2503ZM109.036 552H89.2503V554H109.036V552ZM70.4645 553V548H68.4645V553H70.4645ZM70.4645 548V543H68.4645V548H70.4645ZM69.4645 542H49.6787V544H69.4645V542ZM48.6787 543V548H50.6787V543H48.6787ZM48.6787 548V553H50.6787V548H48.6787ZM69.4645 552H49.6787V554H69.4645V552Z" fill="white" mask="url(#path-1-inside-1_30_96)"/>
<rect width="42" height="42" fill="white"/>
<rect x="1110" y="523" width="42" height="42" fill="white"/>
</svg>
