<svg width="2379" height="192" viewBox="0 0 2379 192" fill="none" xmlns="http://www.w3.org/2000/svg">
<mask id="path-1-inside-1_31_2" fill="white">
<path fill-rule="evenodd" clip-rule="evenodd" d="M0.085083 171.055V181.752C0.085083 187.275 4.56223 191.752 10.0851 191.752H20.0777V186.752V181.752H10.0851L10.0851 171.055H5.08508H0.085083ZM0.085083 149.661H5.08508H10.0851V128.268H5.08508H0.085083V149.661ZM0.085083 106.874H5.08508H10.0851V85.4801H5.08508H0.085083V106.874ZM0.085083 64.0862H5.08508H10.0851V42.6924H5.08508H0.085083V64.0862ZM0.085083 21.2986H5.08508H10.0851V10.6017H20.0783V5.60175V0.601746H10.0851C4.56224 0.601746 0.085083 5.0789 0.085083 10.6017V21.2986ZM40.0647 0.601746V5.60175V10.6017H60.0511V5.60175V0.601746H40.0647ZM80.0375 0.601746V5.60175V10.6017H100.024V5.60175V0.601746H80.0375ZM120.01 0.601746V5.60175V10.6017H139.997V5.60175V0.601746H120.01ZM159.983 0.601746V5.60175V10.6017H179.97V5.60175V0.601746H159.983ZM199.956 0.601746V5.60175V10.6017H219.942V5.60175V0.601746H199.956ZM239.929 0.601746V5.60175V10.6017H259.915V5.60175V0.601746H239.929ZM279.902 0.601746V5.60175V10.6017H299.888V5.60175V0.601746H279.902ZM319.874 0.601746V5.60175V10.6017H339.861V5.60175V0.601746H319.874ZM359.847 0.601746V5.60175V10.6017H379.833V5.60175V0.601746H359.847ZM399.82 0.601746V5.60175V10.6017H419.806V5.60175V0.601746H399.82ZM439.793 0.601746V5.60175V10.6017H459.779V5.60175V0.601746H439.793ZM479.765 0.601746V5.60175V10.6017H499.752V5.60175V0.601746H479.765ZM519.738 0.601746V5.60175V10.6017H539.725V5.60175V0.601746H519.738ZM559.711 0.601746V5.60175V10.6017H579.697V5.60175V0.601746H559.711ZM599.684 0.601746V5.60175V10.6017H619.67V5.60175V0.601746H599.684ZM639.657 0.601746V5.60175V10.6017H659.643V5.60175V0.601746H639.657ZM679.629 0.601746V5.60175V10.6017H699.616V5.60175V0.601746H679.629ZM719.602 0.601746V5.60175V10.6017H739.589V5.60175V0.601746H719.602ZM759.575 0.601746V5.60175V10.6017H779.561V5.60175V0.601746H759.575ZM799.548 0.601746V5.60175V10.6017H819.534V5.60175V0.601746H799.548ZM839.52 0.601746V5.60175V10.6017H859.507V5.60175V0.601746H839.52ZM879.493 0.601746V5.60175V10.6017H899.48V5.60175V0.601746H879.493ZM919.466 0.601746V5.60175V10.6017H939.452V5.60175V0.601746H919.466ZM959.439 0.601746V5.60175V10.6017H979.425V5.60175V0.601746H959.439ZM999.412 0.601746V5.60175V10.6017H1019.4V5.60175V0.601746H999.412ZM1039.38 0.601746V5.60175V10.6017H1059.37V5.60175V0.601746H1039.38ZM1079.36 0.601746V5.60175V10.6017H1099.34V5.60175V0.601746H1079.36ZM1119.33 0.601746V5.60175V10.6017H1139.32V5.60175V0.601746H1119.33ZM1159.3 0.601746V5.60175V10.6017H1179.29V5.60175V0.601746H1159.3ZM1199.28 0.601746V5.60175V10.6017H1219.26V5.60175V0.601746H1199.28ZM1239.25 0.601746V5.60175V10.6017H1259.24V5.60175V0.601746H1239.25ZM1279.22 0.601746V5.60175V10.6017H1299.21V5.60175V0.601746H1279.22ZM1319.19 0.601746V5.60175V10.6017H1339.18V5.60175V0.601746H1319.19ZM1359.17 0.601746V5.60175V10.6017H1379.15V5.60175V0.601746H1359.17ZM1399.14 0.601746V5.60175V10.6017H1419.13V5.60175V0.601746H1399.14ZM1439.11 0.601746V5.60175V10.6017H1459.1V5.60175V0.601746H1439.11ZM1479.09 0.601746V5.60175V10.6017H1499.07V5.60175V0.601746H1479.09ZM1519.06 0.601746V5.60175V10.6017H1539.05V5.60175V0.601746H1519.06ZM1559.03 0.601746V5.60175V10.6017H1579.02V5.60175V0.601746H1559.03ZM1599.01 0.601746V5.60175V10.6017H1618.99V5.60175V0.601746H1599.01ZM1638.98 0.601746V5.60175V10.6017H1658.96V5.60175V0.601746H1638.98ZM1678.95 0.601746V5.60175V10.6017H1698.94V5.60175V0.601746H1678.95ZM1718.92 0.601746V5.60175V10.6017H1738.91V5.60175V0.601746H1718.92ZM1758.9 0.601746V5.60175V10.6017H1778.88V5.60175V0.601746H1758.9ZM1798.87 0.601746V5.60175V10.6017H1818.86V5.60175V0.601746H1798.87ZM1838.84 0.601746V5.60175V10.6017H1858.83V5.60175V0.601746H1838.84ZM1878.82 0.601746V5.60175V10.6017H1898.8V5.60175V0.601746H1878.82ZM1918.79 0.601746V5.60175V10.6017H1938.77V5.60175V0.601746H1918.79ZM1958.76 0.601746V5.60175V10.6017H1978.75V5.60175V0.601746H1958.76ZM1998.73 0.601746V5.60175V10.6017H2018.72V5.60175V0.601746H1998.73ZM2038.71 0.601746V5.60175V10.6017H2058.69V5.60175V0.601746H2038.71ZM2078.68 0.601746V5.60175V10.6017H2098.67V5.60175V0.601746H2078.68ZM2118.65 0.601746V5.60175V10.6017H2138.64V5.60175V0.601746H2118.65ZM2158.62 0.601746V5.60175V10.6017H2178.61V5.60175V0.601746H2158.62ZM2198.6 0.601746V5.60175V10.6017H2218.58V5.60175V0.601746H2198.6ZM2238.57 0.601746V5.60175V10.6017H2258.56V5.60175V0.601746H2238.57ZM2278.54 0.601746V5.60175V10.6017H2298.53V5.60175V0.601746H2278.54ZM2318.52 0.601746V5.60175V10.6017H2338.5V5.60175V0.601746H2318.52ZM2358.49 0.601746V5.60175V10.6017H2368.48V21.2986H2373.48H2378.48V10.6017C2378.48 5.0789 2374 0.601746 2368.48 0.601746H2358.49ZM2378.48 42.6925H2373.48H2368.48V64.0863H2373.48H2378.48V42.6925ZM2378.48 85.4801H2373.48H2368.48V106.874H2373.48H2378.48V85.4801ZM2378.48 128.268H2373.48H2368.48V149.661H2373.48H2378.48V128.268ZM2378.48 171.055H2373.48H2368.48V181.752H2358.49V186.752V191.752H2368.48C2374 191.752 2378.48 187.275 2378.48 181.752V171.055ZM2338.5 191.752V186.752V181.752H2318.51V186.752V191.752H2338.5ZM2298.53 191.752V186.752V181.752H2278.54V186.752V191.752H2298.53ZM2258.56 191.752V186.752V181.752H2238.57V186.752V191.752H2258.56ZM2218.58 191.752V186.752V181.752H2198.6V186.752V191.752H2218.58ZM2178.61 191.752V186.752V181.752H2158.62V186.752V191.752H2178.61ZM2138.64 191.752V186.752V181.752H2118.65V186.752V191.752H2138.64ZM2098.66 191.752V186.752V181.752H2078.68V186.752V191.752H2098.66ZM2058.69 191.752V186.752V181.752H2038.71V186.752V191.752H2058.69ZM2018.72 191.752V186.752V181.752H1998.73V186.752V191.752H2018.72ZM1978.75 191.752V186.752V181.752H1958.76V186.752V191.752H1978.75ZM1938.77 191.752V186.752V181.752H1918.79V186.752V191.752H1938.77ZM1898.8 191.752V186.752V181.752H1878.81V186.752V191.752H1898.8ZM1858.83 191.752V186.752V181.752H1838.84V186.752V191.752H1858.83ZM1818.85 191.752V186.752V181.752H1798.87V186.752V191.752H1818.85ZM1778.88 191.752V186.752V181.752H1758.9V186.752V191.752H1778.88ZM1738.91 191.752V186.752V181.752H1718.92V186.752V191.752H1738.91ZM1698.94 191.752V186.752V181.752H1678.95V186.752V191.752H1698.94ZM1658.96 191.752V186.752V181.752H1638.98V186.752V191.752H1658.96ZM1618.99 191.752V186.752V181.752H1599V186.752V191.752H1618.99ZM1579.02 191.752V186.752V181.752H1559.03V186.752V191.752H1579.02ZM1539.05 191.752V186.752V181.752H1519.06V186.752V191.752H1539.05ZM1499.07 191.752V186.752V181.752H1479.09V186.752V191.752H1499.07ZM1459.1 191.752V186.752V181.752H1439.11V186.752V191.752H1459.1ZM1419.13 191.752V186.752V181.752H1399.14V186.752V191.752H1419.13ZM1379.15 191.752V186.752V181.752H1359.17V186.752V191.752H1379.15ZM1339.18 191.752V186.752V181.752H1319.2V186.752V191.752H1339.18ZM1299.21 191.752V186.752V181.752H1279.22V186.752V191.752H1299.21ZM1259.24 191.752V186.752V181.752H1239.25V186.752V191.752H1259.24ZM1219.26 191.752V186.752V181.752H1199.28V186.752V191.752H1219.26ZM1179.29 191.752V186.752V181.752H1159.3V186.752V191.752H1179.29ZM1139.32 191.752V186.752V181.752H1119.33V186.752V191.752H1139.32ZM1099.34 191.752V186.752V181.752H1079.36V186.752V191.752H1099.34ZM1059.37 191.752V186.752V181.752H1039.38V186.752V191.752H1059.37ZM1019.4 191.752V186.752V181.752H999.412V186.752V191.752H1019.4ZM979.425 191.752V186.752V181.752H959.439V186.752V191.752H979.425ZM939.453 191.752V186.752V181.752H919.466V186.752V191.752H939.453ZM899.48 191.752V186.752V181.752H879.493V186.752V191.752H899.48ZM859.507 191.752V186.752V181.752H839.52V186.752V191.752H859.507ZM819.534 191.752V186.752V181.752H799.547V186.752V191.752H819.534ZM779.561 191.752V186.752V181.752H759.575V186.752V191.752H779.561ZM739.588 191.752V186.752V181.752H719.602V186.752V191.752H739.588ZM699.615 191.752V186.752V181.752H679.629V186.752V191.752H699.615ZM659.642 191.752V186.752V181.752H639.656V186.752V191.752H659.642ZM619.669 191.752V186.752V181.752H599.683V186.752V191.752H619.669ZM579.696 191.752V186.752V181.752H559.71V186.752V191.752H579.696ZM539.723 191.752V186.752V181.752H519.737V186.752V191.752H539.723ZM499.751 191.752V186.752V181.752H479.764V186.752V191.752H499.751ZM459.778 191.752V186.752V181.752H439.791V186.752V191.752H459.778ZM419.805 191.752V186.752V181.752H399.818V186.752V191.752H419.805ZM379.832 191.752V186.752V181.752H359.845V186.752V191.752H379.832ZM339.859 191.752V186.752V181.752H319.873V186.752V191.752H339.859ZM299.886 191.752V186.752V181.752H279.9V186.752V191.752H299.886ZM259.914 191.752V186.752V181.752H239.927V186.752V191.752H259.914ZM219.941 191.752V186.752V181.752H199.955V186.752V191.752H219.941ZM179.968 191.752V186.752V181.752H159.982V186.752V191.752H179.968ZM139.996 191.752V186.752V181.752H120.009V186.752V191.752H139.996ZM100.023 191.752V186.752V181.752H80.0368V186.752V191.752H100.023ZM60.0505 191.752V186.752V181.752H40.064V186.752V191.752H60.0505Z"/>
</mask>
<path d="M0.085083 171.055V170.055H-0.914917V171.055H0.085083ZM20.0777 191.752V192.752H21.0777V191.752H20.0777ZM20.0777 181.752H21.0777V180.752H20.0777V181.752ZM10.0851 181.752L9.08508 181.752L9.08507 182.752H10.0851V181.752ZM10.0851 171.055L11.0851 171.055L11.0851 170.055H10.0851V171.055ZM0.085083 149.661H-0.914917V150.661H0.085083V149.661ZM10.0851 149.661V150.661H11.0851V149.661H10.0851ZM10.0851 128.268H11.0851V127.268H10.0851V128.268ZM0.085083 128.268V127.268H-0.914917V128.268H0.085083ZM0.085083 106.874H-0.914917V107.874H0.085083V106.874ZM10.0851 106.874V107.874H11.0851V106.874H10.0851ZM10.0851 85.4801H11.0851V84.4801H10.0851V85.4801ZM0.085083 85.4801V84.4801H-0.914917V85.4801H0.085083ZM0.085083 64.0862H-0.914917V65.0862H0.085083V64.0862ZM10.0851 64.0862V65.0862H11.0851V64.0862H10.0851ZM10.0851 42.6924H11.0851V41.6924H10.0851V42.6924ZM0.085083 42.6924V41.6924H-0.914917V42.6924H0.085083ZM0.085083 21.2986H-0.914917V22.2986H0.085083V21.2986ZM10.0851 21.2986V22.2986H11.0851V21.2986H10.0851ZM10.0851 10.6017V9.60175H9.08508V10.6017H10.0851ZM20.0783 10.6017V11.6017H21.0783V10.6017H20.0783ZM20.0783 0.601746H21.0783V-0.398254H20.0783V0.601746ZM40.0647 0.601746V-0.398254H39.0647V0.601746H40.0647ZM40.0647 10.6017H39.0647V11.6017H40.0647V10.6017ZM60.0511 10.6017V11.6017H61.0511V10.6017H60.0511ZM60.0511 0.601746H61.0511V-0.398254H60.0511V0.601746ZM80.0375 0.601746V-0.398254H79.0375V0.601746H80.0375ZM80.0375 10.6017H79.0375V11.6017H80.0375V10.6017ZM100.024 10.6017V11.6017H101.024V10.6017H100.024ZM100.024 0.601746H101.024V-0.398254H100.024V0.601746ZM120.01 0.601746V-0.398254H119.01V0.601746H120.01ZM120.01 10.6017H119.01V11.6017H120.01V10.6017ZM139.997 10.6017V11.6017H140.997V10.6017H139.997ZM139.997 0.601746H140.997V-0.398254H139.997V0.601746ZM159.983 0.601746V-0.398254H158.983V0.601746H159.983ZM159.983 10.6017H158.983V11.6017H159.983V10.6017ZM179.97 10.6017V11.6017H180.97V10.6017H179.97ZM179.97 0.601746H180.97V-0.398254H179.97V0.601746ZM199.956 0.601746V-0.398254H198.956V0.601746H199.956ZM199.956 10.6017H198.956V11.6017H199.956V10.6017ZM219.942 10.6017V11.6017H220.942V10.6017H219.942ZM219.942 0.601746H220.942V-0.398254H219.942V0.601746ZM239.929 0.601746V-0.398254H238.929V0.601746H239.929ZM239.929 10.6017H238.929V11.6017H239.929V10.6017ZM259.915 10.6017V11.6017H260.915V10.6017H259.915ZM259.915 0.601746H260.915V-0.398254H259.915V0.601746ZM279.902 0.601746V-0.398254H278.902V0.601746H279.902ZM279.902 10.6017H278.902V11.6017H279.902V10.6017ZM299.888 10.6017V11.6017H300.888V10.6017H299.888ZM299.888 0.601746H300.888V-0.398254H299.888V0.601746ZM319.874 0.601746V-0.398254H318.874V0.601746H319.874ZM319.874 10.6017H318.874V11.6017H319.874V10.6017ZM339.861 10.6017V11.6017H340.861V10.6017H339.861ZM339.861 0.601746H340.861V-0.398254H339.861V0.601746ZM359.847 0.601746V-0.398254H358.847V0.601746H359.847ZM359.847 10.6017H358.847V11.6017H359.847V10.6017ZM379.833 10.6017V11.6017H380.833V10.6017H379.833ZM379.833 0.601746H380.833V-0.398254H379.833V0.601746ZM399.82 0.601746V-0.398254H398.82V0.601746H399.82ZM399.82 10.6017H398.82V11.6017H399.82V10.6017ZM419.806 10.6017V11.6017H420.806V10.6017H419.806ZM419.806 0.601746H420.806V-0.398254H419.806V0.601746ZM439.793 0.601746V-0.398254H438.793V0.601746H439.793ZM439.793 10.6017H438.793V11.6017H439.793V10.6017ZM459.779 10.6017V11.6017H460.779V10.6017H459.779ZM459.779 0.601746H460.779V-0.398254H459.779V0.601746ZM479.765 0.601746V-0.398254H478.765V0.601746H479.765ZM479.765 10.6017H478.765V11.6017H479.765V10.6017ZM499.752 10.6017V11.6017H500.752V10.6017H499.752ZM499.752 0.601746H500.752V-0.398254H499.752V0.601746ZM519.738 0.601746V-0.398254H518.738V0.601746H519.738ZM519.738 10.6017H518.738V11.6017H519.738V10.6017ZM539.725 10.6017V11.6017H540.725V10.6017H539.725ZM539.725 0.601746H540.725V-0.398254H539.725V0.601746ZM559.711 0.601746V-0.398254H558.711V0.601746H559.711ZM559.711 10.6017H558.711V11.6017H559.711V10.6017ZM579.697 10.6017V11.6017H580.697V10.6017H579.697ZM579.697 0.601746H580.697V-0.398254H579.697V0.601746ZM599.684 0.601746V-0.398254H598.684V0.601746H599.684ZM599.684 10.6017H598.684V11.6017H599.684V10.6017ZM619.67 10.6017V11.6017H620.67V10.6017H619.67ZM619.67 0.601746H620.67V-0.398254H619.67V0.601746ZM639.657 0.601746V-0.398254H638.657V0.601746H639.657ZM639.657 10.6017H638.657V11.6017H639.657V10.6017ZM659.643 10.6017V11.6017H660.643V10.6017H659.643ZM659.643 0.601746H660.643V-0.398254H659.643V0.601746ZM679.629 0.601746V-0.398254H678.629V0.601746H679.629ZM679.629 10.6017H678.629V11.6017H679.629V10.6017ZM699.616 10.6017V11.6017H700.616V10.6017H699.616ZM699.616 0.601746H700.616V-0.398254H699.616V0.601746ZM719.602 0.601746V-0.398254H718.602V0.601746H719.602ZM719.602 10.6017H718.602V11.6017H719.602V10.6017ZM739.589 10.6017V11.6017H740.589V10.6017H739.589ZM739.589 0.601746H740.589V-0.398254H739.589V0.601746ZM759.575 0.601746V-0.398254H758.575V0.601746H759.575ZM759.575 10.6017H758.575V11.6017H759.575V10.6017ZM779.561 10.6017V11.6017H780.561V10.6017H779.561ZM779.561 0.601746H780.561V-0.398254H779.561V0.601746ZM799.548 0.601746V-0.398254H798.548V0.601746H799.548ZM799.548 10.6017H798.548V11.6017H799.548V10.6017ZM819.534 10.6017V11.6017H820.534V10.6017H819.534ZM819.534 0.601746H820.534V-0.398254H819.534V0.601746ZM839.52 0.601746V-0.398254H838.52V0.601746H839.52ZM839.52 10.6017H838.52V11.6017H839.52V10.6017ZM859.507 10.6017V11.6017H860.507V10.6017H859.507ZM859.507 0.601746H860.507V-0.398254H859.507V0.601746ZM879.493 0.601746V-0.398254H878.493V0.601746H879.493ZM879.493 10.6017H878.493V11.6017H879.493V10.6017ZM899.48 10.6017V11.6017H900.48V10.6017H899.48ZM899.48 0.601746H900.48V-0.398254H899.48V0.601746ZM919.466 0.601746V-0.398254H918.466V0.601746H919.466ZM919.466 10.6017H918.466V11.6017H919.466V10.6017ZM939.452 10.6017V11.6017H940.452V10.6017H939.452ZM939.452 0.601746H940.452V-0.398254H939.452V0.601746ZM959.439 0.601746V-0.398254H958.439V0.601746H959.439ZM959.439 10.6017H958.439V11.6017H959.439V10.6017ZM979.425 10.6017V11.6017H980.425V10.6017H979.425ZM979.425 0.601746H980.425V-0.398254H979.425V0.601746ZM999.412 0.601746V-0.398254H998.412V0.601746H999.412ZM999.412 10.6017H998.412V11.6017H999.412V10.6017ZM1019.4 10.6017V11.6017H1020.4V10.6017H1019.4ZM1019.4 0.601746H1020.4V-0.398254H1019.4V0.601746ZM1039.38 0.601746V-0.398254H1038.38V0.601746H1039.38ZM1039.38 10.6017H1038.38V11.6017H1039.38V10.6017ZM1059.37 10.6017V11.6017H1060.37V10.6017H1059.37ZM1059.37 0.601746H1060.37V-0.398254H1059.37V0.601746ZM1079.36 0.601746V-0.398254H1078.36V0.601746H1079.36ZM1079.36 10.6017H1078.36V11.6017H1079.36V10.6017ZM1099.34 10.6017V11.6017H1100.34V10.6017H1099.34ZM1099.34 0.601746H1100.34V-0.398254H1099.34V0.601746ZM1119.33 0.601746V-0.398254H1118.33V0.601746H1119.33ZM1119.33 10.6017H1118.33V11.6017H1119.33V10.6017ZM1139.32 10.6017V11.6017H1140.32V10.6017H1139.32ZM1139.32 0.601746H1140.32V-0.398254H1139.32V0.601746ZM1159.3 0.601746V-0.398254H1158.3V0.601746H1159.3ZM1159.3 10.6017H1158.3V11.6017H1159.3V10.6017ZM1179.29 10.6017V11.6017H1180.29V10.6017H1179.29ZM1179.29 0.601746H1180.29V-0.398254H1179.29V0.601746ZM1199.28 0.601746V-0.398254H1198.28V0.601746H1199.28ZM1199.28 10.6017H1198.28V11.6017H1199.28V10.6017ZM1219.26 10.6017V11.6017H1220.26V10.6017H1219.26ZM1219.26 0.601746H1220.26V-0.398254H1219.26V0.601746ZM1239.25 0.601746V-0.398254H1238.25V0.601746H1239.25ZM1239.25 10.6017H1238.25V11.6017H1239.25V10.6017ZM1259.24 10.6017V11.6017H1260.24V10.6017H1259.24ZM1259.24 0.601746H1260.24V-0.398254H1259.24V0.601746ZM1279.22 0.601746V-0.398254H1278.22V0.601746H1279.22ZM1279.22 10.6017H1278.22V11.6017H1279.22V10.6017ZM1299.21 10.6017V11.6017H1300.21V10.6017H1299.21ZM1299.21 0.601746H1300.21V-0.398254H1299.21V0.601746ZM1319.19 0.601746V-0.398254H1318.19V0.601746H1319.19ZM1319.19 10.6017H1318.19V11.6017H1319.19V10.6017ZM1339.18 10.6017V11.6017H1340.18V10.6017H1339.18ZM1339.18 0.601746H1340.18V-0.398254H1339.18V0.601746ZM1359.17 0.601746V-0.398254H1358.17V0.601746H1359.17ZM1359.17 10.6017H1358.17V11.6017H1359.17V10.6017ZM1379.15 10.6017V11.6017H1380.15V10.6017H1379.15ZM1379.15 0.601746H1380.15V-0.398254H1379.15V0.601746ZM1399.14 0.601746V-0.398254H1398.14V0.601746H1399.14ZM1399.14 10.6017H1398.14V11.6017H1399.14V10.6017ZM1419.13 10.6017V11.6017H1420.13V10.6017H1419.13ZM1419.13 0.601746H1420.13V-0.398254H1419.13V0.601746ZM1439.11 0.601746V-0.398254H1438.11V0.601746H1439.11ZM1439.11 10.6017H1438.11V11.6017H1439.11V10.6017ZM1459.1 10.6017V11.6017H1460.1V10.6017H1459.1ZM1459.1 0.601746H1460.1V-0.398254H1459.1V0.601746ZM1479.09 0.601746V-0.398254H1478.09V0.601746H1479.09ZM1479.09 10.6017H1478.09V11.6017H1479.09V10.6017ZM1499.07 10.6017V11.6017H1500.07V10.6017H1499.07ZM1499.07 0.601746H1500.07V-0.398254H1499.07V0.601746ZM1519.06 0.601746V-0.398254H1518.06V0.601746H1519.06ZM1519.06 10.6017H1518.06V11.6017H1519.06V10.6017ZM1539.05 10.6017V11.6017H1540.05V10.6017H1539.05ZM1539.05 0.601746H1540.05V-0.398254H1539.05V0.601746ZM1559.03 0.601746V-0.398254H1558.03V0.601746H1559.03ZM1559.03 10.6017H1558.03V11.6017H1559.03V10.6017ZM1579.02 10.6017V11.6017H1580.02V10.6017H1579.02ZM1579.02 0.601746H1580.02V-0.398254H1579.02V0.601746ZM1599.01 0.601746V-0.398254H1598.01V0.601746H1599.01ZM1599.01 10.6017H1598.01V11.6017H1599.01V10.6017ZM1618.99 10.6017V11.6017H1619.99V10.6017H1618.99ZM1618.99 0.601746H1619.99V-0.398254H1618.99V0.601746ZM1638.98 0.601746V-0.398254H1637.98V0.601746H1638.98ZM1638.98 10.6017H1637.98V11.6017H1638.98V10.6017ZM1658.96 10.6017V11.6017H1659.96V10.6017H1658.96ZM1658.96 0.601746H1659.96V-0.398254H1658.96V0.601746ZM1678.95 0.601746V-0.398254H1677.95V0.601746H1678.95ZM1678.95 10.6017H1677.95V11.6017H1678.95V10.6017ZM1698.94 10.6017V11.6017H1699.94V10.6017H1698.94ZM1698.94 0.601746H1699.94V-0.398254H1698.94V0.601746ZM1718.92 0.601746V-0.398254H1717.92V0.601746H1718.92ZM1718.92 10.6017H1717.92V11.6017H1718.92V10.6017ZM1738.91 10.6017V11.6017H1739.91V10.6017H1738.91ZM1738.91 0.601746H1739.91V-0.398254H1738.91V0.601746ZM1758.9 0.601746V-0.398254H1757.9V0.601746H1758.9ZM1758.9 10.6017H1757.9V11.6017H1758.9V10.6017ZM1778.88 10.6017V11.6017H1779.88V10.6017H1778.88ZM1778.88 0.601746H1779.88V-0.398254H1778.88V0.601746ZM1798.87 0.601746V-0.398254H1797.87V0.601746H1798.87ZM1798.87 10.6017H1797.87V11.6017H1798.87V10.6017ZM1818.86 10.6017V11.6017H1819.86V10.6017H1818.86ZM1818.86 0.601746H1819.86V-0.398254H1818.86V0.601746ZM1838.84 0.601746V-0.398254H1837.84V0.601746H1838.84ZM1838.84 10.6017H1837.84V11.6017H1838.84V10.6017ZM1858.83 10.6017V11.6017H1859.83V10.6017H1858.83ZM1858.83 0.601746H1859.83V-0.398254H1858.83V0.601746ZM1878.82 0.601746V-0.398254H1877.82V0.601746H1878.82ZM1878.82 10.6017H1877.82V11.6017H1878.82V10.6017ZM1898.8 10.6017V11.6017H1899.8V10.6017H1898.8ZM1898.8 0.601746H1899.8V-0.398254H1898.8V0.601746ZM1918.79 0.601746V-0.398254H1917.79V0.601746H1918.79ZM1918.79 10.6017H1917.79V11.6017H1918.79V10.6017ZM1938.77 10.6017V11.6017H1939.77V10.6017H1938.77ZM1938.77 0.601746H1939.77V-0.398254H1938.77V0.601746ZM1958.76 0.601746V-0.398254H1957.76V0.601746H1958.76ZM1958.76 10.6017H1957.76V11.6017H1958.76V10.6017ZM1978.75 10.6017V11.6017H1979.75V10.6017H1978.75ZM1978.75 0.601746H1979.75V-0.398254H1978.75V0.601746ZM1998.73 0.601746V-0.398254H1997.73V0.601746H1998.73ZM1998.73 10.6017H1997.73V11.6017H1998.73V10.6017ZM2018.72 10.6017V11.6017H2019.72V10.6017H2018.72ZM2018.72 0.601746H2019.72V-0.398254H2018.72V0.601746ZM2038.71 0.601746V-0.398254H2037.71V0.601746H2038.71ZM2038.71 10.6017H2037.71V11.6017H2038.71V10.6017ZM2058.69 10.6017V11.6017H2059.69V10.6017H2058.69ZM2058.69 0.601746H2059.69V-0.398254H2058.69V0.601746ZM2078.68 0.601746V-0.398254H2077.68V0.601746H2078.68ZM2078.68 10.6017H2077.68V11.6017H2078.68V10.6017ZM2098.67 10.6017V11.6017H2099.67V10.6017H2098.67ZM2098.67 0.601746H2099.67V-0.398254H2098.67V0.601746ZM2118.65 0.601746V-0.398254H2117.65V0.601746H2118.65ZM2118.65 10.6017H2117.65V11.6017H2118.65V10.6017ZM2138.64 10.6017V11.6017H2139.64V10.6017H2138.64ZM2138.64 0.601746H2139.64V-0.398254H2138.64V0.601746ZM2158.62 0.601746V-0.398254H2157.62V0.601746H2158.62ZM2158.62 10.6017H2157.62V11.6017H2158.62V10.6017ZM2178.61 10.6017V11.6017H2179.61V10.6017H2178.61ZM2178.61 0.601746H2179.61V-0.398254H2178.61V0.601746ZM2198.6 0.601746V-0.398254H2197.6V0.601746H2198.6ZM2198.6 10.6017H2197.6V11.6017H2198.6V10.6017ZM2218.58 10.6017V11.6017H2219.58V10.6017H2218.58ZM2218.58 0.601746H2219.58V-0.398254H2218.58V0.601746ZM2238.57 0.601746V-0.398254H2237.57V0.601746H2238.57ZM2238.57 10.6017H2237.57V11.6017H2238.57V10.6017ZM2258.56 10.6017V11.6017H2259.56V10.6017H2258.56ZM2258.56 0.601746H2259.56V-0.398254H2258.56V0.601746ZM2278.54 0.601746V-0.398254H2277.54V0.601746H2278.54ZM2278.54 10.6017H2277.54V11.6017H2278.54V10.6017ZM2298.53 10.6017V11.6017H2299.53V10.6017H2298.53ZM2298.53 0.601746H2299.53V-0.398254H2298.53V0.601746ZM2318.52 0.601746V-0.398254H2317.52V0.601746H2318.52ZM2318.52 10.6017H2317.52V11.6017H2318.52V10.6017ZM2338.5 10.6017V11.6017H2339.5V10.6017H2338.5ZM2338.5 0.601746H2339.5V-0.398254H2338.5V0.601746ZM2358.49 0.601746V-0.398254H2357.49V0.601746H2358.49ZM2358.49 10.6017H2357.49V11.6017H2358.49V10.6017ZM2368.48 10.6017H2369.48V9.60175H2368.48V10.6017ZM2368.48 21.2986H2367.48V22.2986H2368.48V21.2986ZM2378.48 21.2986V22.2986H2379.48V21.2986H2378.48ZM2378.48 42.6925H2379.48V41.6925H2378.48V42.6925ZM2368.48 42.6925V41.6925H2367.48V42.6925H2368.48ZM2368.48 64.0863H2367.48V65.0863H2368.48V64.0863ZM2378.48 64.0863V65.0863H2379.48V64.0863H2378.48ZM2378.48 85.4801H2379.48V84.4801H2378.48V85.4801ZM2368.48 85.4801V84.4801H2367.48V85.4801H2368.48ZM2368.48 106.874H2367.48V107.874H2368.48V106.874ZM2378.48 106.874V107.874H2379.48V106.874H2378.48ZM2378.48 128.268H2379.48V127.268H2378.48V128.268ZM2368.48 128.268V127.268H2367.48V128.268H2368.48ZM2368.48 149.661H2367.48V150.661H2368.48V149.661ZM2378.48 149.661V150.661H2379.48V149.661H2378.48ZM2378.48 171.055H2379.48V170.055H2378.48V171.055ZM2368.48 171.055V170.055H2367.48V171.055H2368.48ZM2368.48 181.752V182.752H2369.48V181.752H2368.48ZM2358.49 181.752V180.752H2357.49V181.752H2358.49ZM2358.49 191.752H2357.49V192.752H2358.49V191.752ZM2338.5 191.752V192.752H2339.5V191.752H2338.5ZM2338.5 181.752H2339.5V180.752H2338.5V181.752ZM2318.51 181.752V180.752H2317.51V181.752H2318.51ZM2318.51 191.752H2317.51V192.752H2318.51V191.752ZM2298.53 191.752V192.752H2299.53V191.752H2298.53ZM2298.53 181.752H2299.53V180.752H2298.53V181.752ZM2278.54 181.752V180.752H2277.54V181.752H2278.54ZM2278.54 191.752H2277.54V192.752H2278.54V191.752ZM2258.56 191.752V192.752H2259.56V191.752H2258.56ZM2258.56 181.752H2259.56V180.752H2258.56V181.752ZM2238.57 181.752V180.752H2237.57V181.752H2238.57ZM2238.57 191.752H2237.57V192.752H2238.57V191.752ZM2218.58 191.752V192.752H2219.58V191.752H2218.58ZM2218.58 181.752H2219.58V180.752H2218.58V181.752ZM2198.6 181.752V180.752H2197.6V181.752H2198.6ZM2198.6 191.752H2197.6V192.752H2198.6V191.752ZM2178.61 191.752V192.752H2179.61V191.752H2178.61ZM2178.61 181.752H2179.61V180.752H2178.61V181.752ZM2158.62 181.752V180.752H2157.62V181.752H2158.62ZM2158.62 191.752H2157.62V192.752H2158.62V191.752ZM2138.64 191.752V192.752H2139.64V191.752H2138.64ZM2138.64 181.752H2139.64V180.752H2138.64V181.752ZM2118.65 181.752V180.752H2117.65V181.752H2118.65ZM2118.65 191.752H2117.65V192.752H2118.65V191.752ZM2098.66 191.752V192.752H2099.66V191.752H2098.66ZM2098.66 181.752H2099.66V180.752H2098.66V181.752ZM2078.68 181.752V180.752H2077.68V181.752H2078.68ZM2078.68 191.752H2077.68V192.752H2078.68V191.752ZM2058.69 191.752V192.752H2059.69V191.752H2058.69ZM2058.69 181.752H2059.69V180.752H2058.69V181.752ZM2038.71 181.752V180.752H2037.71V181.752H2038.71ZM2038.71 191.752H2037.71V192.752H2038.71V191.752ZM2018.72 191.752V192.752H2019.72V191.752H2018.72ZM2018.72 181.752H2019.72V180.752H2018.72V181.752ZM1998.73 181.752V180.752H1997.73V181.752H1998.73ZM1998.73 191.752H1997.73V192.752H1998.73V191.752ZM1978.75 191.752V192.752H1979.75V191.752H1978.75ZM1978.75 181.752H1979.75V180.752H1978.75V181.752ZM1958.76 181.752V180.752H1957.76V181.752H1958.76ZM1958.76 191.752H1957.76V192.752H1958.76V191.752ZM1938.77 191.752V192.752H1939.77V191.752H1938.77ZM1938.77 181.752H1939.77V180.752H1938.77V181.752ZM1918.79 181.752V180.752H1917.79V181.752H1918.79ZM1918.79 191.752H1917.79V192.752H1918.79V191.752ZM1898.8 191.752V192.752H1899.8V191.752H1898.8ZM1898.8 181.752H1899.8V180.752H1898.8V181.752ZM1878.81 181.752V180.752H1877.81V181.752H1878.81ZM1878.81 191.752H1877.81V192.752H1878.81V191.752ZM1858.83 191.752V192.752H1859.83V191.752H1858.83ZM1858.83 181.752H1859.83V180.752H1858.83V181.752ZM1838.84 181.752V180.752H1837.84V181.752H1838.84ZM1838.84 191.752H1837.84V192.752H1838.84V191.752ZM1818.85 191.752V192.752H1819.85V191.752H1818.85ZM1818.85 181.752H1819.85V180.752H1818.85V181.752ZM1798.87 181.752V180.752H1797.87V181.752H1798.87ZM1798.87 191.752H1797.87V192.752H1798.87V191.752ZM1778.88 191.752V192.752H1779.88V191.752H1778.88ZM1778.88 181.752H1779.88V180.752H1778.88V181.752ZM1758.9 181.752V180.752H1757.9V181.752H1758.9ZM1758.9 191.752H1757.9V192.752H1758.9V191.752ZM1738.91 191.752V192.752H1739.91V191.752H1738.91ZM1738.91 181.752H1739.91V180.752H1738.91V181.752ZM1718.92 181.752V180.752H1717.92V181.752H1718.92ZM1718.92 191.752H1717.92V192.752H1718.92V191.752ZM1698.94 191.752V192.752H1699.94V191.752H1698.94ZM1698.94 181.752H1699.94V180.752H1698.94V181.752ZM1678.95 181.752V180.752H1677.95V181.752H1678.95ZM1678.95 191.752H1677.95V192.752H1678.95V191.752ZM1658.96 191.752V192.752H1659.96V191.752H1658.96ZM1658.96 181.752H1659.96V180.752H1658.96V181.752ZM1638.98 181.752V180.752H1637.98V181.752H1638.98ZM1638.98 191.752H1637.98V192.752H1638.98V191.752ZM1618.99 191.752V192.752H1619.99V191.752H1618.99ZM1618.99 181.752H1619.99V180.752H1618.99V181.752ZM1599 181.752V180.752H1598V181.752H1599ZM1599 191.752H1598V192.752H1599V191.752ZM1579.02 191.752V192.752H1580.02V191.752H1579.02ZM1579.02 181.752H1580.02V180.752H1579.02V181.752ZM1559.03 181.752V180.752H1558.03V181.752H1559.03ZM1559.03 191.752H1558.03V192.752H1559.03V191.752ZM1539.05 191.752V192.752H1540.05V191.752H1539.05ZM1539.05 181.752H1540.05V180.752H1539.05V181.752ZM1519.06 181.752V180.752H1518.06V181.752H1519.06ZM1519.06 191.752H1518.06V192.752H1519.06V191.752ZM1499.07 191.752V192.752H1500.07V191.752H1499.07ZM1499.07 181.752H1500.07V180.752H1499.07V181.752ZM1479.09 181.752V180.752H1478.09V181.752H1479.09ZM1479.09 191.752H1478.09V192.752H1479.09V191.752ZM1459.1 191.752V192.752H1460.1V191.752H1459.1ZM1459.1 181.752H1460.1V180.752H1459.1V181.752ZM1439.11 181.752V180.752H1438.11V181.752H1439.11ZM1439.11 191.752H1438.11V192.752H1439.11V191.752ZM1419.13 191.752V192.752H1420.13V191.752H1419.13ZM1419.13 181.752H1420.13V180.752H1419.13V181.752ZM1399.14 181.752V180.752H1398.14V181.752H1399.14ZM1399.14 191.752H1398.14V192.752H1399.14V191.752ZM1379.15 191.752V192.752H1380.15V191.752H1379.15ZM1379.15 181.752H1380.15V180.752H1379.15V181.752ZM1359.17 181.752V180.752H1358.17V181.752H1359.17ZM1359.17 191.752H1358.17V192.752H1359.17V191.752ZM1339.18 191.752V192.752H1340.18V191.752H1339.18ZM1339.18 181.752H1340.18V180.752H1339.18V181.752ZM1319.2 181.752V180.752H1318.2V181.752H1319.2ZM1319.2 191.752H1318.2V192.752H1319.2V191.752ZM1299.21 191.752V192.752H1300.21V191.752H1299.21ZM1299.21 181.752H1300.21V180.752H1299.21V181.752ZM1279.22 181.752V180.752H1278.22V181.752H1279.22ZM1279.22 191.752H1278.22V192.752H1279.22V191.752ZM1259.24 191.752V192.752H1260.24V191.752H1259.24ZM1259.24 181.752H1260.24V180.752H1259.24V181.752ZM1239.25 181.752V180.752H1238.25V181.752H1239.25ZM1239.25 191.752H1238.25V192.752H1239.25V191.752ZM1219.26 191.752V192.752H1220.26V191.752H1219.26ZM1219.26 181.752H1220.26V180.752H1219.26V181.752ZM1199.28 181.752V180.752H1198.28V181.752H1199.28ZM1199.28 191.752H1198.28V192.752H1199.28V191.752ZM1179.29 191.752V192.752H1180.29V191.752H1179.29ZM1179.29 181.752H1180.29V180.752H1179.29V181.752ZM1159.3 181.752V180.752H1158.3V181.752H1159.3ZM1159.3 191.752H1158.3V192.752H1159.3V191.752ZM1139.32 191.752V192.752H1140.32V191.752H1139.32ZM1139.32 181.752H1140.32V180.752H1139.32V181.752ZM1119.33 181.752V180.752H1118.33V181.752H1119.33ZM1119.33 191.752H1118.33V192.752H1119.33V191.752ZM1099.34 191.752V192.752H1100.34V191.752H1099.34ZM1099.34 181.752H1100.34V180.752H1099.34V181.752ZM1079.36 181.752V180.752H1078.36V181.752H1079.36ZM1079.36 191.752H1078.36V192.752H1079.36V191.752ZM1059.37 191.752V192.752H1060.37V191.752H1059.37ZM1059.37 181.752H1060.37V180.752H1059.37V181.752ZM1039.38 181.752V180.752H1038.38V181.752H1039.38ZM1039.38 191.752H1038.38V192.752H1039.38V191.752ZM1019.4 191.752V192.752H1020.4V191.752H1019.4ZM1019.4 181.752H1020.4V180.752H1019.4V181.752ZM999.412 181.752V180.752H998.412V181.752H999.412ZM999.412 191.752H998.412V192.752H999.412V191.752ZM979.425 191.752V192.752H980.425V191.752H979.425ZM979.425 181.752H980.425V180.752H979.425V181.752ZM959.439 181.752V180.752H958.439V181.752H959.439ZM959.439 191.752H958.439V192.752H959.439V191.752ZM939.453 191.752V192.752H940.453V191.752H939.453ZM939.453 181.752H940.453V180.752H939.453V181.752ZM919.466 181.752V180.752H918.466V181.752H919.466ZM919.466 191.752H918.466V192.752H919.466V191.752ZM899.48 191.752V192.752H900.48V191.752H899.48ZM899.48 181.752H900.48V180.752H899.48V181.752ZM879.493 181.752V180.752H878.493V181.752H879.493ZM879.493 191.752H878.493V192.752H879.493V191.752ZM859.507 191.752V192.752H860.507V191.752H859.507ZM859.507 181.752H860.507V180.752H859.507V181.752ZM839.52 181.752V180.752H838.52V181.752H839.52ZM839.52 191.752H838.52V192.752H839.52V191.752ZM819.534 191.752V192.752H820.534V191.752H819.534ZM819.534 181.752H820.534V180.752H819.534V181.752ZM799.547 181.752V180.752H798.547V181.752H799.547ZM799.547 191.752H798.547V192.752H799.547V191.752ZM779.561 191.752V192.752H780.561V191.752H779.561ZM779.561 181.752H780.561V180.752H779.561V181.752ZM759.575 181.752V180.752H758.575V181.752H759.575ZM759.575 191.752H758.575V192.752H759.575V191.752ZM739.588 191.752V192.752H740.588V191.752H739.588ZM739.588 181.752H740.588V180.752H739.588V181.752ZM719.602 181.752V180.752H718.602V181.752H719.602ZM719.602 191.752H718.602V192.752H719.602V191.752ZM699.615 191.752V192.752H700.615V191.752H699.615ZM699.615 181.752H700.615V180.752H699.615V181.752ZM679.629 181.752V180.752H678.629V181.752H679.629ZM679.629 191.752H678.629V192.752H679.629V191.752ZM659.642 191.752V192.752H660.642V191.752H659.642ZM659.642 181.752H660.642V180.752H659.642V181.752ZM639.656 181.752V180.752H638.656V181.752H639.656ZM639.656 191.752H638.656V192.752H639.656V191.752ZM619.669 191.752V192.752H620.669V191.752H619.669ZM619.669 181.752H620.669V180.752H619.669V181.752ZM599.683 181.752V180.752H598.683V181.752H599.683ZM599.683 191.752H598.683V192.752H599.683V191.752ZM579.696 191.752V192.752H580.696V191.752H579.696ZM579.696 181.752H580.696V180.752H579.696V181.752ZM559.71 181.752V180.752H558.71V181.752H559.71ZM559.71 191.752H558.71V192.752H559.71V191.752ZM539.723 191.752V192.752H540.723V191.752H539.723ZM539.723 181.752H540.723V180.752H539.723V181.752ZM519.737 181.752V180.752H518.737V181.752H519.737ZM519.737 191.752H518.737V192.752H519.737V191.752ZM499.751 191.752V192.752H500.751V191.752H499.751ZM499.751 181.752H500.751V180.752H499.751V181.752ZM479.764 181.752V180.752H478.764V181.752H479.764ZM479.764 191.752H478.764V192.752H479.764V191.752ZM459.778 191.752V192.752H460.778V191.752H459.778ZM459.778 181.752H460.778V180.752H459.778V181.752ZM439.791 181.752V180.752H438.791V181.752H439.791ZM439.791 191.752H438.791V192.752H439.791V191.752ZM419.805 191.752V192.752H420.805V191.752H419.805ZM419.805 181.752H420.805V180.752H419.805V181.752ZM399.818 181.752V180.752H398.818V181.752H399.818ZM399.818 191.752H398.818V192.752H399.818V191.752ZM379.832 191.752V192.752H380.832V191.752H379.832ZM379.832 181.752H380.832V180.752H379.832V181.752ZM359.845 181.752V180.752H358.845V181.752H359.845ZM359.845 191.752H358.845V192.752H359.845V191.752ZM339.859 191.752V192.752H340.859V191.752H339.859ZM339.859 181.752H340.859V180.752H339.859V181.752ZM319.873 181.752V180.752H318.873V181.752H319.873ZM319.873 191.752H318.873V192.752H319.873V191.752ZM299.886 191.752V192.752H300.886V191.752H299.886ZM299.886 181.752H300.886V180.752H299.886V181.752ZM279.9 181.752V180.752H278.9V181.752H279.9ZM279.9 191.752H278.9V192.752H279.9V191.752ZM259.914 191.752V192.752H260.914V191.752H259.914ZM259.914 181.752H260.914V180.752H259.914V181.752ZM239.927 181.752V180.752H238.927V181.752H239.927ZM239.927 191.752H238.927V192.752H239.927V191.752ZM219.941 191.752V192.752H220.941V191.752H219.941ZM219.941 181.752H220.941V180.752H219.941V181.752ZM199.955 181.752V180.752H198.955V181.752H199.955ZM199.955 191.752H198.955V192.752H199.955V191.752ZM179.968 191.752V192.752H180.968V191.752H179.968ZM179.968 181.752H180.968V180.752H179.968V181.752ZM159.982 181.752V180.752H158.982V181.752H159.982ZM159.982 191.752H158.982V192.752H159.982V191.752ZM139.996 191.752V192.752H140.996V191.752H139.996ZM139.996 181.752H140.996V180.752H139.996V181.752ZM120.009 181.752V180.752H119.009V181.752H120.009ZM120.009 191.752H119.009V192.752H120.009V191.752ZM100.023 191.752V192.752H101.023V191.752H100.023ZM100.023 181.752H101.023V180.752H100.023V181.752ZM80.0368 181.752V180.752H79.0368V181.752H80.0368ZM80.0368 191.752H79.0368V192.752H80.0368V191.752ZM60.0505 191.752V192.752H61.0505V191.752H60.0505ZM60.0505 181.752H61.0505V180.752H60.0505V181.752ZM40.064 181.752V180.752H39.064V181.752H40.064ZM40.064 191.752H39.064V192.752H40.064V191.752ZM1.08508 181.752V171.055H-0.914917V181.752H1.08508ZM10.0851 190.752C5.11451 190.752 1.08508 186.723 1.08508 181.752H-0.914917C-0.914917 187.827 4.00994 192.752 10.0851 192.752V190.752ZM20.0777 190.752H10.0851V192.752H20.0777V190.752ZM21.0777 191.752V186.752H19.0777V191.752H21.0777ZM21.0777 186.752V181.752H19.0777V186.752H21.0777ZM20.0777 180.752H10.0851V182.752H20.0777V180.752ZM11.0851 181.752L11.0851 171.055L9.08508 171.055L9.08508 181.752L11.0851 181.752ZM10.0851 170.055H5.08508V172.055H10.0851V170.055ZM5.08508 170.055H0.085083V172.055H5.08508V170.055ZM0.085083 150.661H5.08508V148.661H0.085083V150.661ZM5.08508 150.661H10.0851V148.661H5.08508V150.661ZM11.0851 149.661V128.268H9.08508V149.661H11.0851ZM10.0851 127.268H5.08508V129.268H10.0851V127.268ZM5.08508 127.268H0.085083V129.268H5.08508V127.268ZM1.08508 149.661V128.268H-0.914917V149.661H1.08508ZM0.085083 107.874H5.08508V105.874H0.085083V107.874ZM5.08508 107.874H10.0851V105.874H5.08508V107.874ZM11.0851 106.874V85.4801H9.08508V106.874H11.0851ZM10.0851 84.4801H5.08508V86.4801H10.0851V84.4801ZM5.08508 84.4801H0.085083V86.4801H5.08508V84.4801ZM1.08508 106.874V85.4801H-0.914917V106.874H1.08508ZM0.085083 65.0862H5.08508V63.0862H0.085083V65.0862ZM5.08508 65.0862H10.0851V63.0862H5.08508V65.0862ZM11.0851 64.0862V42.6924H9.08508V64.0862H11.0851ZM10.0851 41.6924H5.08508V43.6924H10.0851V41.6924ZM5.08508 41.6924H0.085083V43.6924H5.08508V41.6924ZM1.08508 64.0862V42.6924H-0.914917V64.0862H1.08508ZM0.085083 22.2986H5.08508V20.2986H0.085083V22.2986ZM5.08508 22.2986H10.0851V20.2986H5.08508V22.2986ZM11.0851 21.2986V10.6017H9.08508V21.2986H11.0851ZM10.0851 11.6017H20.0783V9.60175H10.0851V11.6017ZM21.0783 10.6017V5.60175H19.0783V10.6017H21.0783ZM21.0783 5.60175V0.601746H19.0783V5.60175H21.0783ZM10.0851 1.60175H20.0783V-0.398254H10.0851V1.60175ZM1.08508 10.6017C1.08508 5.63118 5.11452 1.60175 10.0851 1.60175V-0.398254C4.00995 -0.398254 -0.914917 4.52661 -0.914917 10.6017H1.08508ZM1.08508 21.2986V10.6017H-0.914917V21.2986H1.08508ZM39.0647 0.601746V5.60175H41.0647V0.601746H39.0647ZM39.0647 5.60175V10.6017H41.0647V5.60175H39.0647ZM40.0647 11.6017H60.0511V9.60175H40.0647V11.6017ZM61.0511 10.6017V5.60175H59.0511V10.6017H61.0511ZM61.0511 5.60175V0.601746H59.0511V5.60175H61.0511ZM40.0647 1.60175H60.0511V-0.398254H40.0647V1.60175ZM79.0375 0.601746V5.60175H81.0375V0.601746H79.0375ZM79.0375 5.60175V10.6017H81.0375V5.60175H79.0375ZM80.0375 11.6017H100.024V9.60175H80.0375V11.6017ZM101.024 10.6017V5.60175H99.0239V10.6017H101.024ZM101.024 5.60175V0.601746H99.0239V5.60175H101.024ZM80.0375 1.60175H100.024V-0.398254H80.0375V1.60175ZM119.01 0.601746V5.60175H121.01V0.601746H119.01ZM119.01 5.60175V10.6017H121.01V5.60175H119.01ZM120.01 11.6017H139.997V9.60175H120.01V11.6017ZM140.997 10.6017V5.60175H138.997V10.6017H140.997ZM140.997 5.60175V0.601746H138.997V5.60175H140.997ZM120.01 1.60175H139.997V-0.398254H120.01V1.60175ZM158.983 0.601746V5.60175H160.983V0.601746H158.983ZM158.983 5.60175V10.6017H160.983V5.60175H158.983ZM159.983 11.6017H179.97V9.60175H159.983V11.6017ZM180.97 10.6017V5.60175H178.97V10.6017H180.97ZM180.97 5.60175V0.601746H178.97V5.60175H180.97ZM159.983 1.60175H179.97V-0.398254H159.983V1.60175ZM198.956 0.601746V5.60175H200.956V0.601746H198.956ZM198.956 5.60175V10.6017H200.956V5.60175H198.956ZM199.956 11.6017H219.942V9.60175H199.956V11.6017ZM220.942 10.6017V5.60175H218.942V10.6017H220.942ZM220.942 5.60175V0.601746H218.942V5.60175H220.942ZM199.956 1.60175H219.942V-0.398254H199.956V1.60175ZM238.929 0.601746V5.60175H240.929V0.601746H238.929ZM238.929 5.60175V10.6017H240.929V5.60175H238.929ZM239.929 11.6017H259.915V9.60175H239.929V11.6017ZM260.915 10.6017V5.60175H258.915V10.6017H260.915ZM260.915 5.60175V0.601746H258.915V5.60175H260.915ZM239.929 1.60175H259.915V-0.398254H239.929V1.60175ZM278.902 0.601746V5.60175H280.902V0.601746H278.902ZM278.902 5.60175V10.6017H280.902V5.60175H278.902ZM279.902 11.6017H299.888V9.60175H279.902V11.6017ZM300.888 10.6017V5.60175H298.888V10.6017H300.888ZM300.888 5.60175V0.601746H298.888V5.60175H300.888ZM279.902 1.60175H299.888V-0.398254H279.902V1.60175ZM318.874 0.601746V5.60175H320.874V0.601746H318.874ZM318.874 5.60175V10.6017H320.874V5.60175H318.874ZM319.874 11.6017H339.861V9.60175H319.874V11.6017ZM340.861 10.6017V5.60175H338.861V10.6017H340.861ZM340.861 5.60175V0.601746H338.861V5.60175H340.861ZM319.874 1.60175H339.861V-0.398254H319.874V1.60175ZM358.847 0.601746V5.60175H360.847V0.601746H358.847ZM358.847 5.60175V10.6017H360.847V5.60175H358.847ZM359.847 11.6017H379.833V9.60175H359.847V11.6017ZM380.833 10.6017V5.60175H378.833V10.6017H380.833ZM380.833 5.60175V0.601746H378.833V5.60175H380.833ZM359.847 1.60175H379.833V-0.398254H359.847V1.60175ZM398.82 0.601746V5.60175H400.82V0.601746H398.82ZM398.82 5.60175V10.6017H400.82V5.60175H398.82ZM399.82 11.6017H419.806V9.60175H399.82V11.6017ZM420.806 10.6017V5.60175H418.806V10.6017H420.806ZM420.806 5.60175V0.601746H418.806V5.60175H420.806ZM399.82 1.60175H419.806V-0.398254H399.82V1.60175ZM438.793 0.601746V5.60175H440.793V0.601746H438.793ZM438.793 5.60175V10.6017H440.793V5.60175H438.793ZM439.793 11.6017H459.779V9.60175H439.793V11.6017ZM460.779 10.6017V5.60175H458.779V10.6017H460.779ZM460.779 5.60175V0.601746H458.779V5.60175H460.779ZM439.793 1.60175H459.779V-0.398254H439.793V1.60175ZM478.765 0.601746V5.60175H480.765V0.601746H478.765ZM478.765 5.60175V10.6017H480.765V5.60175H478.765ZM479.765 11.6017H499.752V9.60175H479.765V11.6017ZM500.752 10.6017V5.60175H498.752V10.6017H500.752ZM500.752 5.60175V0.601746H498.752V5.60175H500.752ZM479.765 1.60175H499.752V-0.398254H479.765V1.60175ZM518.738 0.601746V5.60175H520.738V0.601746H518.738ZM518.738 5.60175V10.6017H520.738V5.60175H518.738ZM519.738 11.6017H539.725V9.60175H519.738V11.6017ZM540.725 10.6017V5.60175H538.725V10.6017H540.725ZM540.725 5.60175V0.601746H538.725V5.60175H540.725ZM519.738 1.60175H539.725V-0.398254H519.738V1.60175ZM558.711 0.601746V5.60175H560.711V0.601746H558.711ZM558.711 5.60175V10.6017H560.711V5.60175H558.711ZM559.711 11.6017H579.697V9.60175H559.711V11.6017ZM580.697 10.6017V5.60175H578.697V10.6017H580.697ZM580.697 5.60175V0.601746H578.697V5.60175H580.697ZM559.711 1.60175H579.697V-0.398254H559.711V1.60175ZM598.684 0.601746V5.60175H600.684V0.601746H598.684ZM598.684 5.60175V10.6017H600.684V5.60175H598.684ZM599.684 11.6017H619.67V9.60175H599.684V11.6017ZM620.67 10.6017V5.60175H618.67V10.6017H620.67ZM620.67 5.60175V0.601746H618.67V5.60175H620.67ZM599.684 1.60175H619.67V-0.398254H599.684V1.60175ZM638.657 0.601746V5.60175H640.657V0.601746H638.657ZM638.657 5.60175V10.6017H640.657V5.60175H638.657ZM639.657 11.6017H659.643V9.60175H639.657V11.6017ZM660.643 10.6017V5.60175H658.643V10.6017H660.643ZM660.643 5.60175V0.601746H658.643V5.60175H660.643ZM639.657 1.60175H659.643V-0.398254H639.657V1.60175ZM678.629 0.601746V5.60175H680.629V0.601746H678.629ZM678.629 5.60175V10.6017H680.629V5.60175H678.629ZM679.629 11.6017H699.616V9.60175H679.629V11.6017ZM700.616 10.6017V5.60175H698.616V10.6017H700.616ZM700.616 5.60175V0.601746H698.616V5.60175H700.616ZM679.629 1.60175H699.616V-0.398254H679.629V1.60175ZM718.602 0.601746V5.60175H720.602V0.601746H718.602ZM718.602 5.60175V10.6017H720.602V5.60175H718.602ZM719.602 11.6017H739.589V9.60175H719.602V11.6017ZM740.589 10.6017V5.60175H738.589V10.6017H740.589ZM740.589 5.60175V0.601746H738.589V5.60175H740.589ZM719.602 1.60175H739.589V-0.398254H719.602V1.60175ZM758.575 0.601746V5.60175H760.575V0.601746H758.575ZM758.575 5.60175V10.6017H760.575V5.60175H758.575ZM759.575 11.6017H779.561V9.60175H759.575V11.6017ZM780.561 10.6017V5.60175H778.561V10.6017H780.561ZM780.561 5.60175V0.601746H778.561V5.60175H780.561ZM759.575 1.60175H779.561V-0.398254H759.575V1.60175ZM798.548 0.601746V5.60175H800.548V0.601746H798.548ZM798.548 5.60175V10.6017H800.548V5.60175H798.548ZM799.548 11.6017H819.534V9.60175H799.548V11.6017ZM820.534 10.6017V5.60175H818.534V10.6017H820.534ZM820.534 5.60175V0.601746H818.534V5.60175H820.534ZM799.548 1.60175H819.534V-0.398254H799.548V1.60175ZM838.52 0.601746V5.60175H840.52V0.601746H838.52ZM838.52 5.60175V10.6017H840.52V5.60175H838.52ZM839.52 11.6017H859.507V9.60175H839.52V11.6017ZM860.507 10.6017V5.60175H858.507V10.6017H860.507ZM860.507 5.60175V0.601746H858.507V5.60175H860.507ZM839.52 1.60175H859.507V-0.398254H839.52V1.60175ZM878.493 0.601746V5.60175H880.493V0.601746H878.493ZM878.493 5.60175V10.6017H880.493V5.60175H878.493ZM879.493 11.6017H899.48V9.60175H879.493V11.6017ZM900.48 10.6017V5.60175H898.48V10.6017H900.48ZM900.48 5.60175V0.601746H898.48V5.60175H900.48ZM879.493 1.60175H899.48V-0.398254H879.493V1.60175ZM918.466 0.601746V5.60175H920.466V0.601746H918.466ZM918.466 5.60175V10.6017H920.466V5.60175H918.466ZM919.466 11.6017H939.452V9.60175H919.466V11.6017ZM940.452 10.6017V5.60175H938.452V10.6017H940.452ZM940.452 5.60175V0.601746H938.452V5.60175H940.452ZM919.466 1.60175H939.452V-0.398254H919.466V1.60175ZM958.439 0.601746V5.60175H960.439V0.601746H958.439ZM958.439 5.60175V10.6017H960.439V5.60175H958.439ZM959.439 11.6017H979.425V9.60175H959.439V11.6017ZM980.425 10.6017V5.60175H978.425V10.6017H980.425ZM980.425 5.60175V0.601746H978.425V5.60175H980.425ZM959.439 1.60175H979.425V-0.398254H959.439V1.60175ZM998.412 0.601746V5.60175H1000.41V0.601746H998.412ZM998.412 5.60175V10.6017H1000.41V5.60175H998.412ZM999.412 11.6017H1019.4V9.60175H999.412V11.6017ZM1020.4 10.6017V5.60175H1018.4V10.6017H1020.4ZM1020.4 5.60175V0.601746H1018.4V5.60175H1020.4ZM999.412 1.60175H1019.4V-0.398254H999.412V1.60175ZM1038.38 0.601746V5.60175H1040.38V0.601746H1038.38ZM1038.38 5.60175V10.6017H1040.38V5.60175H1038.38ZM1039.38 11.6017H1059.37V9.60175H1039.38V11.6017ZM1060.37 10.6017V5.60175H1058.37V10.6017H1060.37ZM1060.37 5.60175V0.601746H1058.37V5.60175H1060.37ZM1039.38 1.60175H1059.37V-0.398254H1039.38V1.60175ZM1078.36 0.601746V5.60175H1080.36V0.601746H1078.36ZM1078.36 5.60175V10.6017H1080.36V5.60175H1078.36ZM1079.36 11.6017H1099.34V9.60175H1079.36V11.6017ZM1100.34 10.6017V5.60175H1098.34V10.6017H1100.34ZM1100.34 5.60175V0.601746H1098.34V5.60175H1100.34ZM1079.36 1.60175H1099.34V-0.398254H1079.36V1.60175ZM1118.33 0.601746V5.60175H1120.33V0.601746H1118.33ZM1118.33 5.60175V10.6017H1120.33V5.60175H1118.33ZM1119.33 11.6017H1139.32V9.60175H1119.33V11.6017ZM1140.32 10.6017V5.60175H1138.32V10.6017H1140.32ZM1140.32 5.60175V0.601746H1138.32V5.60175H1140.32ZM1119.33 1.60175H1139.32V-0.398254H1119.33V1.60175ZM1158.3 0.601746V5.60175H1160.3V0.601746H1158.3ZM1158.3 5.60175V10.6017H1160.3V5.60175H1158.3ZM1159.3 11.6017H1179.29V9.60175H1159.3V11.6017ZM1180.29 10.6017V5.60175H1178.29V10.6017H1180.29ZM1180.29 5.60175V0.601746H1178.29V5.60175H1180.29ZM1159.3 1.60175H1179.29V-0.398254H1159.3V1.60175ZM1198.28 0.601746V5.60175H1200.28V0.601746H1198.28ZM1198.28 5.60175V10.6017H1200.28V5.60175H1198.28ZM1199.28 11.6017H1219.26V9.60175H1199.28V11.6017ZM1220.26 10.6017V5.60175H1218.26V10.6017H1220.26ZM1220.26 5.60175V0.601746H1218.26V5.60175H1220.26ZM1199.28 1.60175H1219.26V-0.398254H1199.28V1.60175ZM1238.25 0.601746V5.60175H1240.25V0.601746H1238.25ZM1238.25 5.60175V10.6017H1240.25V5.60175H1238.25ZM1239.25 11.6017H1259.24V9.60175H1239.25V11.6017ZM1260.24 10.6017V5.60175H1258.24V10.6017H1260.24ZM1260.24 5.60175V0.601746H1258.24V5.60175H1260.24ZM1239.25 1.60175H1259.24V-0.398254H1239.25V1.60175ZM1278.22 0.601746V5.60175H1280.22V0.601746H1278.22ZM1278.22 5.60175V10.6017H1280.22V5.60175H1278.22ZM1279.22 11.6017H1299.21V9.60175H1279.22V11.6017ZM1300.21 10.6017V5.60175H1298.21V10.6017H1300.21ZM1300.21 5.60175V0.601746H1298.21V5.60175H1300.21ZM1279.22 1.60175H1299.21V-0.398254H1279.22V1.60175ZM1318.19 0.601746V5.60175H1320.19V0.601746H1318.19ZM1318.19 5.60175V10.6017H1320.19V5.60175H1318.19ZM1319.19 11.6017H1339.18V9.60175H1319.19V11.6017ZM1340.18 10.6017V5.60175H1338.18V10.6017H1340.18ZM1340.18 5.60175V0.601746H1338.18V5.60175H1340.18ZM1319.19 1.60175H1339.18V-0.398254H1319.19V1.60175ZM1358.17 0.601746V5.60175H1360.17V0.601746H1358.17ZM1358.17 5.60175V10.6017H1360.17V5.60175H1358.17ZM1359.17 11.6017H1379.15V9.60175H1359.17V11.6017ZM1380.15 10.6017V5.60175H1378.15V10.6017H1380.15ZM1380.15 5.60175V0.601746H1378.15V5.60175H1380.15ZM1359.17 1.60175H1379.15V-0.398254H1359.17V1.60175ZM1398.14 0.601746V5.60175H1400.14V0.601746H1398.14ZM1398.14 5.60175V10.6017H1400.14V5.60175H1398.14ZM1399.14 11.6017H1419.13V9.60175H1399.14V11.6017ZM1420.13 10.6017V5.60175H1418.13V10.6017H1420.13ZM1420.13 5.60175V0.601746H1418.13V5.60175H1420.13ZM1399.14 1.60175H1419.13V-0.398254H1399.14V1.60175ZM1438.11 0.601746V5.60175H1440.11V0.601746H1438.11ZM1438.11 5.60175V10.6017H1440.11V5.60175H1438.11ZM1439.11 11.6017H1459.1V9.60175H1439.11V11.6017ZM1460.1 10.6017V5.60175H1458.1V10.6017H1460.1ZM1460.1 5.60175V0.601746H1458.1V5.60175H1460.1ZM1439.11 1.60175H1459.1V-0.398254H1439.11V1.60175ZM1478.09 0.601746V5.60175H1480.09V0.601746H1478.09ZM1478.09 5.60175V10.6017H1480.09V5.60175H1478.09ZM1479.09 11.6017H1499.07V9.60175H1479.09V11.6017ZM1500.07 10.6017V5.60175H1498.07V10.6017H1500.07ZM1500.07 5.60175V0.601746H1498.07V5.60175H1500.07ZM1479.09 1.60175H1499.07V-0.398254H1479.09V1.60175ZM1518.06 0.601746V5.60175H1520.06V0.601746H1518.06ZM1518.06 5.60175V10.6017H1520.06V5.60175H1518.06ZM1519.06 11.6017H1539.05V9.60175H1519.06V11.6017ZM1540.05 10.6017V5.60175H1538.05V10.6017H1540.05ZM1540.05 5.60175V0.601746H1538.05V5.60175H1540.05ZM1519.06 1.60175H1539.05V-0.398254H1519.06V1.60175ZM1558.03 0.601746V5.60175H1560.03V0.601746H1558.03ZM1558.03 5.60175V10.6017H1560.03V5.60175H1558.03ZM1559.03 11.6017H1579.02V9.60175H1559.03V11.6017ZM1580.02 10.6017V5.60175H1578.02V10.6017H1580.02ZM1580.02 5.60175V0.601746H1578.02V5.60175H1580.02ZM1559.03 1.60175H1579.02V-0.398254H1559.03V1.60175ZM1598.01 0.601746V5.60175H1600.01V0.601746H1598.01ZM1598.01 5.60175V10.6017H1600.01V5.60175H1598.01ZM1599.01 11.6017H1618.99V9.60175H1599.01V11.6017ZM1619.99 10.6017V5.60175H1617.99V10.6017H1619.99ZM1619.99 5.60175V0.601746H1617.99V5.60175H1619.99ZM1599.01 1.60175H1618.99V-0.398254H1599.01V1.60175ZM1637.98 0.601746V5.60175H1639.98V0.601746H1637.98ZM1637.98 5.60175V10.6017H1639.98V5.60175H1637.98ZM1638.98 11.6017H1658.96V9.60175H1638.98V11.6017ZM1659.96 10.6017V5.60175H1657.96V10.6017H1659.96ZM1659.96 5.60175V0.601746H1657.96V5.60175H1659.96ZM1638.98 1.60175H1658.96V-0.398254H1638.98V1.60175ZM1677.95 0.601746V5.60175H1679.95V0.601746H1677.95ZM1677.95 5.60175V10.6017H1679.95V5.60175H1677.95ZM1678.95 11.6017H1698.94V9.60175H1678.95V11.6017ZM1699.94 10.6017V5.60175H1697.94V10.6017H1699.94ZM1699.94 5.60175V0.601746H1697.94V5.60175H1699.94ZM1678.95 1.60175H1698.94V-0.398254H1678.95V1.60175ZM1717.92 0.601746V5.60175H1719.92V0.601746H1717.92ZM1717.92 5.60175V10.6017H1719.92V5.60175H1717.92ZM1718.92 11.6017H1738.91V9.60175H1718.92V11.6017ZM1739.91 10.6017V5.60175H1737.91V10.6017H1739.91ZM1739.91 5.60175V0.601746H1737.91V5.60175H1739.91ZM1718.92 1.60175H1738.91V-0.398254H1718.92V1.60175ZM1757.9 0.601746V5.60175H1759.9V0.601746H1757.9ZM1757.9 5.60175V10.6017H1759.9V5.60175H1757.9ZM1758.9 11.6017H1778.88V9.60175H1758.9V11.6017ZM1779.88 10.6017V5.60175H1777.88V10.6017H1779.88ZM1779.88 5.60175V0.601746H1777.88V5.60175H1779.88ZM1758.9 1.60175H1778.88V-0.398254H1758.9V1.60175ZM1797.87 0.601746V5.60175H1799.87V0.601746H1797.87ZM1797.87 5.60175V10.6017H1799.87V5.60175H1797.87ZM1798.87 11.6017H1818.86V9.60175H1798.87V11.6017ZM1819.86 10.6017V5.60175H1817.86V10.6017H1819.86ZM1819.86 5.60175V0.601746H1817.86V5.60175H1819.86ZM1798.87 1.60175H1818.86V-0.398254H1798.87V1.60175ZM1837.84 0.601746V5.60175H1839.84V0.601746H1837.84ZM1837.84 5.60175V10.6017H1839.84V5.60175H1837.84ZM1838.84 11.6017H1858.83V9.60175H1838.84V11.6017ZM1859.83 10.6017V5.60175H1857.83V10.6017H1859.83ZM1859.83 5.60175V0.601746H1857.83V5.60175H1859.83ZM1838.84 1.60175H1858.83V-0.398254H1838.84V1.60175ZM1877.82 0.601746V5.60175H1879.82V0.601746H1877.82ZM1877.82 5.60175V10.6017H1879.82V5.60175H1877.82ZM1878.82 11.6017H1898.8V9.60175H1878.82V11.6017ZM1899.8 10.6017V5.60175H1897.8V10.6017H1899.8ZM1899.8 5.60175V0.601746H1897.8V5.60175H1899.8ZM1878.82 1.60175H1898.8V-0.398254H1878.82V1.60175ZM1917.79 0.601746V5.60175H1919.79V0.601746H1917.79ZM1917.79 5.60175V10.6017H1919.79V5.60175H1917.79ZM1918.79 11.6017H1938.77V9.60175H1918.79V11.6017ZM1939.77 10.6017V5.60175H1937.77V10.6017H1939.77ZM1939.77 5.60175V0.601746H1937.77V5.60175H1939.77ZM1918.79 1.60175H1938.77V-0.398254H1918.79V1.60175ZM1957.76 0.601746V5.60175H1959.76V0.601746H1957.76ZM1957.76 5.60175V10.6017H1959.76V5.60175H1957.76ZM1958.76 11.6017H1978.75V9.60175H1958.76V11.6017ZM1979.75 10.6017V5.60175H1977.75V10.6017H1979.75ZM1979.75 5.60175V0.601746H1977.75V5.60175H1979.75ZM1958.76 1.60175H1978.75V-0.398254H1958.76V1.60175ZM1997.73 0.601746V5.60175H1999.73V0.601746H1997.73ZM1997.73 5.60175V10.6017H1999.73V5.60175H1997.73ZM1998.73 11.6017H2018.72V9.60175H1998.73V11.6017ZM2019.72 10.6017V5.60175H2017.72V10.6017H2019.72ZM2019.72 5.60175V0.601746H2017.72V5.60175H2019.72ZM1998.73 1.60175H2018.72V-0.398254H1998.73V1.60175ZM2037.71 0.601746V5.60175H2039.71V0.601746H2037.71ZM2037.71 5.60175V10.6017H2039.71V5.60175H2037.71ZM2038.71 11.6017H2058.69V9.60175H2038.71V11.6017ZM2059.69 10.6017V5.60175H2057.69V10.6017H2059.69ZM2059.69 5.60175V0.601746H2057.69V5.60175H2059.69ZM2038.71 1.60175H2058.69V-0.398254H2038.71V1.60175ZM2077.68 0.601746V5.60175H2079.68V0.601746H2077.68ZM2077.68 5.60175V10.6017H2079.68V5.60175H2077.68ZM2078.68 11.6017H2098.67V9.60175H2078.68V11.6017ZM2099.67 10.6017V5.60175H2097.67V10.6017H2099.67ZM2099.67 5.60175V0.601746H2097.67V5.60175H2099.67ZM2078.68 1.60175H2098.67V-0.398254H2078.68V1.60175ZM2117.65 0.601746V5.60175H2119.65V0.601746H2117.65ZM2117.65 5.60175V10.6017H2119.65V5.60175H2117.65ZM2118.65 11.6017H2138.64V9.60175H2118.65V11.6017ZM2139.64 10.6017V5.60175H2137.64V10.6017H2139.64ZM2139.64 5.60175V0.601746H2137.64V5.60175H2139.64ZM2118.65 1.60175H2138.64V-0.398254H2118.65V1.60175ZM2157.62 0.601746V5.60175H2159.62V0.601746H2157.62ZM2157.62 5.60175V10.6017H2159.62V5.60175H2157.62ZM2158.62 11.6017H2178.61V9.60175H2158.62V11.6017ZM2179.61 10.6017V5.60175H2177.61V10.6017H2179.61ZM2179.61 5.60175V0.601746H2177.61V5.60175H2179.61ZM2158.62 1.60175H2178.61V-0.398254H2158.62V1.60175ZM2197.6 0.601746V5.60175H2199.6V0.601746H2197.6ZM2197.6 5.60175V10.6017H2199.6V5.60175H2197.6ZM2198.6 11.6017H2218.58V9.60175H2198.6V11.6017ZM2219.58 10.6017V5.60175H2217.58V10.6017H2219.58ZM2219.58 5.60175V0.601746H2217.58V5.60175H2219.58ZM2198.6 1.60175H2218.58V-0.398254H2198.6V1.60175ZM2237.57 0.601746V5.60175H2239.57V0.601746H2237.57ZM2237.57 5.60175V10.6017H2239.57V5.60175H2237.57ZM2238.57 11.6017H2258.56V9.60175H2238.57V11.6017ZM2259.56 10.6017V5.60175H2257.56V10.6017H2259.56ZM2259.56 5.60175V0.601746H2257.56V5.60175H2259.56ZM2238.57 1.60175H2258.56V-0.398254H2238.57V1.60175ZM2277.54 0.601746V5.60175H2279.54V0.601746H2277.54ZM2277.54 5.60175V10.6017H2279.54V5.60175H2277.54ZM2278.54 11.6017H2298.53V9.60175H2278.54V11.6017ZM2299.53 10.6017V5.60175H2297.53V10.6017H2299.53ZM2299.53 5.60175V0.601746H2297.53V5.60175H2299.53ZM2278.54 1.60175H2298.53V-0.398254H2278.54V1.60175ZM2317.52 0.601746V5.60175H2319.52V0.601746H2317.52ZM2317.52 5.60175V10.6017H2319.52V5.60175H2317.52ZM2318.52 11.6017H2338.5V9.60175H2318.52V11.6017ZM2339.5 10.6017V5.60175H2337.5V10.6017H2339.5ZM2339.5 5.60175V0.601746H2337.5V5.60175H2339.5ZM2318.52 1.60175H2338.5V-0.398254H2318.52V1.60175ZM2357.49 0.601746V5.60175H2359.49V0.601746H2357.49ZM2357.49 5.60175V10.6017H2359.49V5.60175H2357.49ZM2358.49 11.6017H2368.48V9.60175H2358.49V11.6017ZM2367.48 10.6017V21.2986H2369.48V10.6017H2367.48ZM2368.48 22.2986H2373.48V20.2986H2368.48V22.2986ZM2373.48 22.2986H2378.48V20.2986H2373.48V22.2986ZM2377.48 10.6017V21.2986H2379.48V10.6017H2377.48ZM2368.48 1.60175C2373.45 1.60175 2377.48 5.63118 2377.48 10.6017H2379.48C2379.48 4.52662 2374.56 -0.398254 2368.48 -0.398254V1.60175ZM2358.49 1.60175H2368.48V-0.398254H2358.49V1.60175ZM2378.48 41.6925H2373.48V43.6925H2378.48V41.6925ZM2373.48 41.6925H2368.48V43.6925H2373.48V41.6925ZM2367.48 42.6925V64.0863H2369.48V42.6925H2367.48ZM2368.48 65.0863H2373.48V63.0863H2368.48V65.0863ZM2373.48 65.0863H2378.48V63.0863H2373.48V65.0863ZM2377.48 42.6925V64.0863H2379.48V42.6925H2377.48ZM2378.48 84.4801H2373.48V86.4801H2378.48V84.4801ZM2373.48 84.4801H2368.48V86.4801H2373.48V84.4801ZM2367.48 85.4801V106.874H2369.48V85.4801H2367.48ZM2368.48 107.874H2373.48V105.874H2368.48V107.874ZM2373.48 107.874H2378.48V105.874H2373.48V107.874ZM2377.48 85.4801V106.874H2379.48V85.4801H2377.48ZM2378.48 127.268H2373.48V129.268H2378.48V127.268ZM2373.48 127.268H2368.48V129.268H2373.48V127.268ZM2367.48 128.268V149.661H2369.48V128.268H2367.48ZM2368.48 150.661H2373.48V148.661H2368.48V150.661ZM2373.48 150.661H2378.48V148.661H2373.48V150.661ZM2377.48 128.268V149.661H2379.48V128.268H2377.48ZM2378.48 170.055H2373.48V172.055H2378.48V170.055ZM2373.48 170.055H2368.48V172.055H2373.48V170.055ZM2367.48 171.055V181.752H2369.48V171.055H2367.48ZM2368.48 180.752H2358.49V182.752H2368.48V180.752ZM2357.49 181.752V186.752H2359.49V181.752H2357.49ZM2357.49 186.752V191.752H2359.49V186.752H2357.49ZM2368.48 190.752H2358.49V192.752H2368.48V190.752ZM2377.48 181.752C2377.48 186.723 2373.45 190.752 2368.48 190.752V192.752C2374.56 192.752 2379.48 187.827 2379.48 181.752H2377.48ZM2377.48 171.055V181.752H2379.48V171.055H2377.48ZM2339.5 191.752V186.752H2337.5V191.752H2339.5ZM2339.5 186.752V181.752H2337.5V186.752H2339.5ZM2338.5 180.752H2318.51V182.752H2338.5V180.752ZM2317.51 181.752V186.752H2319.51V181.752H2317.51ZM2317.51 186.752V191.752H2319.51V186.752H2317.51ZM2338.5 190.752H2318.51V192.752H2338.5V190.752ZM2299.53 191.752V186.752H2297.53V191.752H2299.53ZM2299.53 186.752V181.752H2297.53V186.752H2299.53ZM2298.53 180.752H2278.54V182.752H2298.53V180.752ZM2277.54 181.752V186.752H2279.54V181.752H2277.54ZM2277.54 186.752V191.752H2279.54V186.752H2277.54ZM2298.53 190.752H2278.54V192.752H2298.53V190.752ZM2259.56 191.752V186.752H2257.56V191.752H2259.56ZM2259.56 186.752V181.752H2257.56V186.752H2259.56ZM2258.56 180.752H2238.57V182.752H2258.56V180.752ZM2237.57 181.752V186.752H2239.57V181.752H2237.57ZM2237.57 186.752V191.752H2239.57V186.752H2237.57ZM2258.56 190.752H2238.57V192.752H2258.56V190.752ZM2219.58 191.752V186.752H2217.58V191.752H2219.58ZM2219.58 186.752V181.752H2217.58V186.752H2219.58ZM2218.58 180.752H2198.6V182.752H2218.58V180.752ZM2197.6 181.752V186.752H2199.6V181.752H2197.6ZM2197.6 186.752V191.752H2199.6V186.752H2197.6ZM2218.58 190.752H2198.6V192.752H2218.58V190.752ZM2179.61 191.752V186.752H2177.61V191.752H2179.61ZM2179.61 186.752V181.752H2177.61V186.752H2179.61ZM2178.61 180.752H2158.62V182.752H2178.61V180.752ZM2157.62 181.752V186.752H2159.62V181.752H2157.62ZM2157.62 186.752V191.752H2159.62V186.752H2157.62ZM2178.61 190.752H2158.62V192.752H2178.61V190.752ZM2139.64 191.752V186.752H2137.64V191.752H2139.64ZM2139.64 186.752V181.752H2137.64V186.752H2139.64ZM2138.64 180.752H2118.65V182.752H2138.64V180.752ZM2117.65 181.752V186.752H2119.65V181.752H2117.65ZM2117.65 186.752V191.752H2119.65V186.752H2117.65ZM2138.64 190.752H2118.65V192.752H2138.64V190.752ZM2099.66 191.752V186.752H2097.66V191.752H2099.66ZM2099.66 186.752V181.752H2097.66V186.752H2099.66ZM2098.66 180.752H2078.68V182.752H2098.66V180.752ZM2077.68 181.752V186.752H2079.68V181.752H2077.68ZM2077.68 186.752V191.752H2079.68V186.752H2077.68ZM2098.66 190.752H2078.68V192.752H2098.66V190.752ZM2059.69 191.752V186.752H2057.69V191.752H2059.69ZM2059.69 186.752V181.752H2057.69V186.752H2059.69ZM2058.69 180.752H2038.71V182.752H2058.69V180.752ZM2037.71 181.752V186.752H2039.71V181.752H2037.71ZM2037.71 186.752V191.752H2039.71V186.752H2037.71ZM2058.69 190.752H2038.71V192.752H2058.69V190.752ZM2019.72 191.752V186.752H2017.72V191.752H2019.72ZM2019.72 186.752V181.752H2017.72V186.752H2019.72ZM2018.72 180.752H1998.73V182.752H2018.72V180.752ZM1997.73 181.752V186.752H1999.73V181.752H1997.73ZM1997.73 186.752V191.752H1999.73V186.752H1997.73ZM2018.72 190.752H1998.73V192.752H2018.72V190.752ZM1979.75 191.752V186.752H1977.75V191.752H1979.75ZM1979.75 186.752V181.752H1977.75V186.752H1979.75ZM1978.75 180.752H1958.76V182.752H1978.75V180.752ZM1957.76 181.752V186.752H1959.76V181.752H1957.76ZM1957.76 186.752V191.752H1959.76V186.752H1957.76ZM1978.75 190.752H1958.76V192.752H1978.75V190.752ZM1939.77 191.752V186.752H1937.77V191.752H1939.77ZM1939.77 186.752V181.752H1937.77V186.752H1939.77ZM1938.77 180.752H1918.79V182.752H1938.77V180.752ZM1917.79 181.752V186.752H1919.79V181.752H1917.79ZM1917.79 186.752V191.752H1919.79V186.752H1917.79ZM1938.77 190.752H1918.79V192.752H1938.77V190.752ZM1899.8 191.752V186.752H1897.8V191.752H1899.8ZM1899.8 186.752V181.752H1897.8V186.752H1899.8ZM1898.8 180.752H1878.81V182.752H1898.8V180.752ZM1877.81 181.752V186.752H1879.81V181.752H1877.81ZM1877.81 186.752V191.752H1879.81V186.752H1877.81ZM1898.8 190.752H1878.81V192.752H1898.8V190.752ZM1859.83 191.752V186.752H1857.83V191.752H1859.83ZM1859.83 186.752V181.752H1857.83V186.752H1859.83ZM1858.83 180.752H1838.84V182.752H1858.83V180.752ZM1837.84 181.752V186.752H1839.84V181.752H1837.84ZM1837.84 186.752V191.752H1839.84V186.752H1837.84ZM1858.83 190.752H1838.84V192.752H1858.83V190.752ZM1819.85 191.752V186.752H1817.85V191.752H1819.85ZM1819.85 186.752V181.752H1817.85V186.752H1819.85ZM1818.85 180.752H1798.87V182.752H1818.85V180.752ZM1797.87 181.752V186.752H1799.87V181.752H1797.87ZM1797.87 186.752V191.752H1799.87V186.752H1797.87ZM1818.85 190.752H1798.87V192.752H1818.85V190.752ZM1779.88 191.752V186.752H1777.88V191.752H1779.88ZM1779.88 186.752V181.752H1777.88V186.752H1779.88ZM1778.88 180.752H1758.9V182.752H1778.88V180.752ZM1757.9 181.752V186.752H1759.9V181.752H1757.9ZM1757.9 186.752V191.752H1759.9V186.752H1757.9ZM1778.88 190.752H1758.9V192.752H1778.88V190.752ZM1739.91 191.752V186.752H1737.91V191.752H1739.91ZM1739.91 186.752V181.752H1737.91V186.752H1739.91ZM1738.91 180.752H1718.92V182.752H1738.91V180.752ZM1717.92 181.752V186.752H1719.92V181.752H1717.92ZM1717.92 186.752V191.752H1719.92V186.752H1717.92ZM1738.91 190.752H1718.92V192.752H1738.91V190.752ZM1699.94 191.752V186.752H1697.94V191.752H1699.94ZM1699.94 186.752V181.752H1697.94V186.752H1699.94ZM1698.94 180.752H1678.95V182.752H1698.94V180.752ZM1677.95 181.752V186.752H1679.95V181.752H1677.95ZM1677.95 186.752V191.752H1679.95V186.752H1677.95ZM1698.94 190.752H1678.95V192.752H1698.94V190.752ZM1659.96 191.752V186.752H1657.96V191.752H1659.96ZM1659.96 186.752V181.752H1657.96V186.752H1659.96ZM1658.96 180.752H1638.98V182.752H1658.96V180.752ZM1637.98 181.752V186.752H1639.98V181.752H1637.98ZM1637.98 186.752V191.752H1639.98V186.752H1637.98ZM1658.96 190.752H1638.98V192.752H1658.96V190.752ZM1619.99 191.752V186.752H1617.99V191.752H1619.99ZM1619.99 186.752V181.752H1617.99V186.752H1619.99ZM1618.99 180.752H1599V182.752H1618.99V180.752ZM1598 181.752V186.752H1600V181.752H1598ZM1598 186.752V191.752H1600V186.752H1598ZM1618.99 190.752H1599V192.752H1618.99V190.752ZM1580.02 191.752V186.752H1578.02V191.752H1580.02ZM1580.02 186.752V181.752H1578.02V186.752H1580.02ZM1579.02 180.752H1559.03V182.752H1579.02V180.752ZM1558.03 181.752V186.752H1560.03V181.752H1558.03ZM1558.03 186.752V191.752H1560.03V186.752H1558.03ZM1579.02 190.752H1559.03V192.752H1579.02V190.752ZM1540.05 191.752V186.752H1538.05V191.752H1540.05ZM1540.05 186.752V181.752H1538.05V186.752H1540.05ZM1539.05 180.752H1519.06V182.752H1539.05V180.752ZM1518.06 181.752V186.752H1520.06V181.752H1518.06ZM1518.06 186.752V191.752H1520.06V186.752H1518.06ZM1539.05 190.752H1519.06V192.752H1539.05V190.752ZM1500.07 191.752V186.752H1498.07V191.752H1500.07ZM1500.07 186.752V181.752H1498.07V186.752H1500.07ZM1499.07 180.752H1479.09V182.752H1499.07V180.752ZM1478.09 181.752V186.752H1480.09V181.752H1478.09ZM1478.09 186.752V191.752H1480.09V186.752H1478.09ZM1499.07 190.752H1479.09V192.752H1499.07V190.752ZM1460.1 191.752V186.752H1458.1V191.752H1460.1ZM1460.1 186.752V181.752H1458.1V186.752H1460.1ZM1459.1 180.752H1439.11V182.752H1459.1V180.752ZM1438.11 181.752V186.752H1440.11V181.752H1438.11ZM1438.11 186.752V191.752H1440.11V186.752H1438.11ZM1459.1 190.752H1439.11V192.752H1459.1V190.752ZM1420.13 191.752V186.752H1418.13V191.752H1420.13ZM1420.13 186.752V181.752H1418.13V186.752H1420.13ZM1419.13 180.752H1399.14V182.752H1419.13V180.752ZM1398.14 181.752V186.752H1400.14V181.752H1398.14ZM1398.14 186.752V191.752H1400.14V186.752H1398.14ZM1419.13 190.752H1399.14V192.752H1419.13V190.752ZM1380.15 191.752V186.752H1378.15V191.752H1380.15ZM1380.15 186.752V181.752H1378.15V186.752H1380.15ZM1379.15 180.752H1359.17V182.752H1379.15V180.752ZM1358.17 181.752V186.752H1360.17V181.752H1358.17ZM1358.17 186.752V191.752H1360.17V186.752H1358.17ZM1379.15 190.752H1359.17V192.752H1379.15V190.752ZM1340.18 191.752V186.752H1338.18V191.752H1340.18ZM1340.18 186.752V181.752H1338.18V186.752H1340.18ZM1339.18 180.752H1319.2V182.752H1339.18V180.752ZM1318.2 181.752V186.752H1320.2V181.752H1318.2ZM1318.2 186.752V191.752H1320.2V186.752H1318.2ZM1339.18 190.752H1319.2V192.752H1339.18V190.752ZM1300.21 191.752V186.752H1298.21V191.752H1300.21ZM1300.21 186.752V181.752H1298.21V186.752H1300.21ZM1299.21 180.752H1279.22V182.752H1299.21V180.752ZM1278.22 181.752V186.752H1280.22V181.752H1278.22ZM1278.22 186.752V191.752H1280.22V186.752H1278.22ZM1299.21 190.752H1279.22V192.752H1299.21V190.752ZM1260.24 191.752V186.752H1258.24V191.752H1260.24ZM1260.24 186.752V181.752H1258.24V186.752H1260.24ZM1259.24 180.752H1239.25V182.752H1259.24V180.752ZM1238.25 181.752V186.752H1240.25V181.752H1238.25ZM1238.25 186.752V191.752H1240.25V186.752H1238.25ZM1259.24 190.752H1239.25V192.752H1259.24V190.752ZM1220.26 191.752V186.752H1218.26V191.752H1220.26ZM1220.26 186.752V181.752H1218.26V186.752H1220.26ZM1219.26 180.752H1199.28V182.752H1219.26V180.752ZM1198.28 181.752V186.752H1200.28V181.752H1198.28ZM1198.28 186.752V191.752H1200.28V186.752H1198.28ZM1219.26 190.752H1199.28V192.752H1219.26V190.752ZM1180.29 191.752V186.752H1178.29V191.752H1180.29ZM1180.29 186.752V181.752H1178.29V186.752H1180.29ZM1179.29 180.752H1159.3V182.752H1179.29V180.752ZM1158.3 181.752V186.752H1160.3V181.752H1158.3ZM1158.3 186.752V191.752H1160.3V186.752H1158.3ZM1179.29 190.752H1159.3V192.752H1179.29V190.752ZM1140.32 191.752V186.752H1138.32V191.752H1140.32ZM1140.32 186.752V181.752H1138.32V186.752H1140.32ZM1139.32 180.752H1119.33V182.752H1139.32V180.752ZM1118.33 181.752V186.752H1120.33V181.752H1118.33ZM1118.33 186.752V191.752H1120.33V186.752H1118.33ZM1139.32 190.752H1119.33V192.752H1139.32V190.752ZM1100.34 191.752V186.752H1098.34V191.752H1100.34ZM1100.34 186.752V181.752H1098.34V186.752H1100.34ZM1099.34 180.752H1079.36V182.752H1099.34V180.752ZM1078.36 181.752V186.752H1080.36V181.752H1078.36ZM1078.36 186.752V191.752H1080.36V186.752H1078.36ZM1099.34 190.752H1079.36V192.752H1099.34V190.752ZM1060.37 191.752V186.752H1058.37V191.752H1060.37ZM1060.37 186.752V181.752H1058.37V186.752H1060.37ZM1059.37 180.752H1039.38V182.752H1059.37V180.752ZM1038.38 181.752V186.752H1040.38V181.752H1038.38ZM1038.38 186.752V191.752H1040.38V186.752H1038.38ZM1059.37 190.752H1039.38V192.752H1059.37V190.752ZM1020.4 191.752V186.752H1018.4V191.752H1020.4ZM1020.4 186.752V181.752H1018.4V186.752H1020.4ZM1019.4 180.752H999.412V182.752H1019.4V180.752ZM998.412 181.752V186.752H1000.41V181.752H998.412ZM998.412 186.752V191.752H1000.41V186.752H998.412ZM1019.4 190.752H999.412V192.752H1019.4V190.752ZM980.425 191.752V186.752H978.425V191.752H980.425ZM980.425 186.752V181.752H978.425V186.752H980.425ZM979.425 180.752H959.439V182.752H979.425V180.752ZM958.439 181.752V186.752H960.439V181.752H958.439ZM958.439 186.752V191.752H960.439V186.752H958.439ZM979.425 190.752H959.439V192.752H979.425V190.752ZM940.453 191.752V186.752H938.453V191.752H940.453ZM940.453 186.752V181.752H938.453V186.752H940.453ZM939.453 180.752H919.466V182.752H939.453V180.752ZM918.466 181.752V186.752H920.466V181.752H918.466ZM918.466 186.752V191.752H920.466V186.752H918.466ZM939.453 190.752H919.466V192.752H939.453V190.752ZM900.48 191.752V186.752H898.48V191.752H900.48ZM900.48 186.752V181.752H898.48V186.752H900.48ZM899.48 180.752H879.493V182.752H899.48V180.752ZM878.493 181.752V186.752H880.493V181.752H878.493ZM878.493 186.752V191.752H880.493V186.752H878.493ZM899.48 190.752H879.493V192.752H899.48V190.752ZM860.507 191.752V186.752H858.507V191.752H860.507ZM860.507 186.752V181.752H858.507V186.752H860.507ZM859.507 180.752H839.52V182.752H859.507V180.752ZM838.52 181.752V186.752H840.52V181.752H838.52ZM838.52 186.752V191.752H840.52V186.752H838.52ZM859.507 190.752H839.52V192.752H859.507V190.752ZM820.534 191.752V186.752H818.534V191.752H820.534ZM820.534 186.752V181.752H818.534V186.752H820.534ZM819.534 180.752H799.547V182.752H819.534V180.752ZM798.547 181.752V186.752H800.547V181.752H798.547ZM798.547 186.752V191.752H800.547V186.752H798.547ZM819.534 190.752H799.547V192.752H819.534V190.752ZM780.561 191.752V186.752H778.561V191.752H780.561ZM780.561 186.752V181.752H778.561V186.752H780.561ZM779.561 180.752H759.575V182.752H779.561V180.752ZM758.575 181.752V186.752H760.575V181.752H758.575ZM758.575 186.752V191.752H760.575V186.752H758.575ZM779.561 190.752H759.575V192.752H779.561V190.752ZM740.588 191.752V186.752H738.588V191.752H740.588ZM740.588 186.752V181.752H738.588V186.752H740.588ZM739.588 180.752H719.602V182.752H739.588V180.752ZM718.602 181.752V186.752H720.602V181.752H718.602ZM718.602 186.752V191.752H720.602V186.752H718.602ZM739.588 190.752H719.602V192.752H739.588V190.752ZM700.615 191.752V186.752H698.615V191.752H700.615ZM700.615 186.752V181.752H698.615V186.752H700.615ZM699.615 180.752H679.629V182.752H699.615V180.752ZM678.629 181.752V186.752H680.629V181.752H678.629ZM678.629 186.752V191.752H680.629V186.752H678.629ZM699.615 190.752H679.629V192.752H699.615V190.752ZM660.642 191.752V186.752H658.642V191.752H660.642ZM660.642 186.752V181.752H658.642V186.752H660.642ZM659.642 180.752H639.656V182.752H659.642V180.752ZM638.656 181.752V186.752H640.656V181.752H638.656ZM638.656 186.752V191.752H640.656V186.752H638.656ZM659.642 190.752H639.656V192.752H659.642V190.752ZM620.669 191.752V186.752H618.669V191.752H620.669ZM620.669 186.752V181.752H618.669V186.752H620.669ZM619.669 180.752H599.683V182.752H619.669V180.752ZM598.683 181.752V186.752H600.683V181.752H598.683ZM598.683 186.752V191.752H600.683V186.752H598.683ZM619.669 190.752H599.683V192.752H619.669V190.752ZM580.696 191.752V186.752H578.696V191.752H580.696ZM580.696 186.752V181.752H578.696V186.752H580.696ZM579.696 180.752H559.71V182.752H579.696V180.752ZM558.71 181.752V186.752H560.71V181.752H558.71ZM558.71 186.752V191.752H560.71V186.752H558.71ZM579.696 190.752H559.71V192.752H579.696V190.752ZM540.723 191.752V186.752H538.723V191.752H540.723ZM540.723 186.752V181.752H538.723V186.752H540.723ZM539.723 180.752H519.737V182.752H539.723V180.752ZM518.737 181.752V186.752H520.737V181.752H518.737ZM518.737 186.752V191.752H520.737V186.752H518.737ZM539.723 190.752H519.737V192.752H539.723V190.752ZM500.751 191.752V186.752H498.751V191.752H500.751ZM500.751 186.752V181.752H498.751V186.752H500.751ZM499.751 180.752H479.764V182.752H499.751V180.752ZM478.764 181.752V186.752H480.764V181.752H478.764ZM478.764 186.752V191.752H480.764V186.752H478.764ZM499.751 190.752H479.764V192.752H499.751V190.752ZM460.778 191.752V186.752H458.778V191.752H460.778ZM460.778 186.752V181.752H458.778V186.752H460.778ZM459.778 180.752H439.791V182.752H459.778V180.752ZM438.791 181.752V186.752H440.791V181.752H438.791ZM438.791 186.752V191.752H440.791V186.752H438.791ZM459.778 190.752H439.791V192.752H459.778V190.752ZM420.805 191.752V186.752H418.805V191.752H420.805ZM420.805 186.752V181.752H418.805V186.752H420.805ZM419.805 180.752H399.818V182.752H419.805V180.752ZM398.818 181.752V186.752H400.818V181.752H398.818ZM398.818 186.752V191.752H400.818V186.752H398.818ZM419.805 190.752H399.818V192.752H419.805V190.752ZM380.832 191.752V186.752H378.832V191.752H380.832ZM380.832 186.752V181.752H378.832V186.752H380.832ZM379.832 180.752H359.845V182.752H379.832V180.752ZM358.845 181.752V186.752H360.845V181.752H358.845ZM358.845 186.752V191.752H360.845V186.752H358.845ZM379.832 190.752H359.845V192.752H379.832V190.752ZM340.859 191.752V186.752H338.859V191.752H340.859ZM340.859 186.752V181.752H338.859V186.752H340.859ZM339.859 180.752H319.873V182.752H339.859V180.752ZM318.873 181.752V186.752H320.873V181.752H318.873ZM318.873 186.752V191.752H320.873V186.752H318.873ZM339.859 190.752H319.873V192.752H339.859V190.752ZM300.886 191.752V186.752H298.886V191.752H300.886ZM300.886 186.752V181.752H298.886V186.752H300.886ZM299.886 180.752H279.9V182.752H299.886V180.752ZM278.9 181.752V186.752H280.9V181.752H278.9ZM278.9 186.752V191.752H280.9V186.752H278.9ZM299.886 190.752H279.9V192.752H299.886V190.752ZM260.914 191.752V186.752H258.914V191.752H260.914ZM260.914 186.752V181.752H258.914V186.752H260.914ZM259.914 180.752H239.927V182.752H259.914V180.752ZM238.927 181.752V186.752H240.927V181.752H238.927ZM238.927 186.752V191.752H240.927V186.752H238.927ZM259.914 190.752H239.927V192.752H259.914V190.752ZM220.941 191.752V186.752H218.941V191.752H220.941ZM220.941 186.752V181.752H218.941V186.752H220.941ZM219.941 180.752H199.955V182.752H219.941V180.752ZM198.955 181.752V186.752H200.955V181.752H198.955ZM198.955 186.752V191.752H200.955V186.752H198.955ZM219.941 190.752H199.955V192.752H219.941V190.752ZM180.968 191.752V186.752H178.968V191.752H180.968ZM180.968 186.752V181.752H178.968V186.752H180.968ZM179.968 180.752H159.982V182.752H179.968V180.752ZM158.982 181.752V186.752H160.982V181.752H158.982ZM158.982 186.752V191.752H160.982V186.752H158.982ZM179.968 190.752H159.982V192.752H179.968V190.752ZM140.996 191.752V186.752H138.996V191.752H140.996ZM140.996 186.752V181.752H138.996V186.752H140.996ZM139.996 180.752H120.009V182.752H139.996V180.752ZM119.009 181.752V186.752H121.009V181.752H119.009ZM119.009 186.752V191.752H121.009V186.752H119.009ZM139.996 190.752H120.009V192.752H139.996V190.752ZM101.023 191.752V186.752H99.023V191.752H101.023ZM101.023 186.752V181.752H99.023V186.752H101.023ZM100.023 180.752H80.0368V182.752H100.023V180.752ZM79.0368 181.752V186.752H81.0368V181.752H79.0368ZM79.0368 186.752V191.752H81.0368V186.752H79.0368ZM100.023 190.752H80.0368V192.752H100.023V190.752ZM61.0505 191.752V186.752H59.0505V191.752H61.0505ZM61.0505 186.752V181.752H59.0505V186.752H61.0505ZM60.0505 180.752H40.064V182.752H60.0505V180.752ZM39.064 181.752V186.752H41.064V181.752H39.064ZM39.064 186.752V191.752H41.064V186.752H39.064ZM60.0505 190.752H40.064V192.752H60.0505V190.752Z" fill="white" mask="url(#path-1-inside-1_31_2)"/>
</svg>
