<svg width="764" height="126" viewBox="0 0 764 126" fill="none" xmlns="http://www.w3.org/2000/svg">
<rect width="764" height="126" rx="63" fill="white"/>
<path d="M83.8809 41.3438V84H75.1211V41.3438H83.8809ZM97.0059 41.3438V48.2285H62.2012V41.3438H97.0059Z" fill="#BFBFBF"/>
<path d="M153.016 72.8379C153.016 72.0762 152.898 71.3926 152.664 70.7871C152.449 70.1621 152.039 69.5957 151.434 69.0879C150.828 68.5605 149.979 68.043 148.885 67.5352C147.791 67.0273 146.375 66.5 144.637 65.9531C142.703 65.3281 140.867 64.625 139.129 63.8438C137.41 63.0625 135.887 62.1543 134.559 61.1191C133.25 60.0645 132.215 58.8438 131.453 57.457C130.711 56.0703 130.34 54.459 130.34 52.623C130.34 50.8457 130.73 49.2344 131.512 47.7891C132.293 46.3242 133.387 45.0742 134.793 44.0391C136.199 42.9844 137.859 42.1738 139.773 41.6074C141.707 41.041 143.826 40.7578 146.131 40.7578C149.275 40.7578 152.02 41.3242 154.363 42.457C156.707 43.5898 158.523 45.1426 159.812 47.1152C161.121 49.0879 161.775 51.3438 161.775 53.8828H153.045C153.045 52.6328 152.781 51.5391 152.254 50.6016C151.746 49.6445 150.965 48.8926 149.91 48.3457C148.875 47.7988 147.566 47.5254 145.984 47.5254C144.461 47.5254 143.191 47.7598 142.176 48.2285C141.16 48.6777 140.398 49.293 139.891 50.0742C139.383 50.8359 139.129 51.6953 139.129 52.6523C139.129 53.375 139.305 54.0293 139.656 54.6152C140.027 55.2012 140.574 55.748 141.297 56.2559C142.02 56.7637 142.908 57.2422 143.963 57.6914C145.018 58.1406 146.238 58.5801 147.625 59.0098C149.949 59.7129 151.99 60.5039 153.748 61.3828C155.525 62.2617 157.01 63.248 158.201 64.3418C159.393 65.4355 160.291 66.6758 160.896 68.0625C161.502 69.4492 161.805 71.0215 161.805 72.7793C161.805 74.6348 161.443 76.2949 160.721 77.7598C159.998 79.2246 158.953 80.4648 157.586 81.4805C156.219 82.4961 154.588 83.2676 152.693 83.7949C150.799 84.3223 148.68 84.5859 146.336 84.5859C144.227 84.5859 142.146 84.3125 140.096 83.7656C138.045 83.1992 136.18 82.3496 134.5 81.2168C132.84 80.084 131.512 78.6387 130.516 76.8809C129.52 75.123 129.021 73.043 129.021 70.6406H137.84C137.84 71.9688 138.045 73.0918 138.455 74.0098C138.865 74.9277 139.441 75.6699 140.184 76.2363C140.945 76.8027 141.844 77.2129 142.879 77.4668C143.934 77.7207 145.086 77.8477 146.336 77.8477C147.859 77.8477 149.109 77.6328 150.086 77.2031C151.082 76.7734 151.814 76.1777 152.283 75.416C152.771 74.6543 153.016 73.7949 153.016 72.8379ZM181.844 84.5859C179.383 84.5859 177.176 84.1953 175.223 83.4141C173.27 82.6133 171.609 81.5098 170.242 80.1035C168.895 78.6973 167.859 77.0664 167.137 75.2109C166.414 73.3359 166.053 71.3438 166.053 69.2344V68.0625C166.053 65.6602 166.395 63.4629 167.078 61.4707C167.762 59.4785 168.738 57.75 170.008 56.2852C171.297 54.8203 172.859 53.6973 174.695 52.916C176.531 52.1152 178.602 51.7148 180.906 51.7148C183.152 51.7148 185.145 52.0859 186.883 52.8281C188.621 53.5703 190.076 54.625 191.248 55.9922C192.439 57.3594 193.338 59 193.943 60.9141C194.549 62.8086 194.852 64.918 194.852 67.2422V70.7578H169.656V65.1328H186.561V64.4883C186.561 63.3164 186.346 62.2715 185.916 61.3535C185.506 60.416 184.881 59.6738 184.041 59.127C183.201 58.5801 182.127 58.3066 180.818 58.3066C179.705 58.3066 178.748 58.5508 177.947 59.0391C177.146 59.5273 176.492 60.2109 175.984 61.0898C175.496 61.9688 175.125 63.0039 174.871 64.1953C174.637 65.3672 174.52 66.6562 174.52 68.0625V69.2344C174.52 70.5039 174.695 71.6758 175.047 72.75C175.418 73.8242 175.936 74.752 176.6 75.5332C177.283 76.3145 178.104 76.9199 179.061 77.3496C180.037 77.7793 181.141 77.9941 182.371 77.9941C183.895 77.9941 185.311 77.7012 186.619 77.1152C187.947 76.5098 189.09 75.6016 190.047 74.3906L194.148 78.8438C193.484 79.8008 192.576 80.7188 191.424 81.5977C190.291 82.4766 188.924 83.1992 187.322 83.7656C185.721 84.3125 183.895 84.5859 181.844 84.5859ZM208.094 58.8633V84H199.627V52.3008H207.566L208.094 58.8633ZM206.922 67.0371H204.578C204.578 64.8301 204.842 62.7988 205.369 60.9434C205.916 59.0684 206.707 57.4473 207.742 56.0801C208.797 54.6934 210.096 53.6191 211.639 52.8574C213.182 52.0957 214.969 51.7148 217 51.7148C218.406 51.7148 219.695 51.9297 220.867 52.3594C222.039 52.7695 223.045 53.4238 223.885 54.3223C224.744 55.2012 225.408 56.3535 225.877 57.7793C226.346 59.1855 226.58 60.875 226.58 62.8477V84H218.143V63.7852C218.143 62.3398 217.947 61.2266 217.557 60.4453C217.166 59.6641 216.609 59.1172 215.887 58.8047C215.184 58.4922 214.334 58.3359 213.338 58.3359C212.244 58.3359 211.287 58.5605 210.467 59.0098C209.666 59.459 209.002 60.084 208.475 60.8848C207.947 61.666 207.557 62.584 207.303 63.6387C207.049 64.6934 206.922 65.8262 206.922 67.0371ZM225.789 66.0703L222.771 66.4512C222.771 64.3809 223.025 62.457 223.533 60.6797C224.061 58.9023 224.832 57.3398 225.848 55.9922C226.883 54.6445 228.162 53.5996 229.686 52.8574C231.209 52.0957 232.967 51.7148 234.959 51.7148C236.482 51.7148 237.869 51.9395 239.119 52.3887C240.369 52.8184 241.434 53.5117 242.312 54.4688C243.211 55.4062 243.895 56.6367 244.363 58.1602C244.852 59.6836 245.096 61.5488 245.096 63.7559V84H236.629V63.7559C236.629 62.291 236.434 61.1777 236.043 60.416C235.672 59.6348 235.125 59.0977 234.402 58.8047C233.699 58.4922 232.859 58.3359 231.883 58.3359C230.867 58.3359 229.979 58.541 229.217 58.9512C228.455 59.3418 227.82 59.8887 227.312 60.5918C226.805 61.2949 226.424 62.1152 226.17 63.0527C225.916 63.9707 225.789 64.9766 225.789 66.0703ZM260.535 52.3008V84H252.068V52.3008H260.535ZM251.541 44.0391C251.541 42.8086 251.971 41.793 252.83 40.9922C253.689 40.1914 254.842 39.791 256.287 39.791C257.713 39.791 258.855 40.1914 259.715 40.9922C260.594 41.793 261.033 42.8086 261.033 44.0391C261.033 45.2695 260.594 46.2852 259.715 47.0859C258.855 47.8867 257.713 48.2871 256.287 48.2871C254.842 48.2871 253.689 47.8867 252.83 47.0859C251.971 46.2852 251.541 45.2695 251.541 44.0391ZM267.508 39H275.945V76.7344L275.096 84H267.508V39ZM296.014 67.8281V68.4434C296.014 70.8066 295.76 72.9746 295.252 74.9473C294.764 76.9199 294.002 78.6289 292.967 80.0742C291.932 81.5 290.643 82.6133 289.1 83.4141C287.576 84.1953 285.779 84.5859 283.709 84.5859C281.775 84.5859 280.096 84.1953 278.67 83.4141C277.264 82.6328 276.082 81.5293 275.125 80.1035C274.168 78.6777 273.396 77.0078 272.811 75.0938C272.225 73.1797 271.785 71.0898 271.492 68.8242V67.4766C271.785 65.2109 272.225 63.1211 272.811 61.207C273.396 59.293 274.168 57.623 275.125 56.1973C276.082 54.7715 277.264 53.668 278.67 52.8867C280.076 52.1055 281.736 51.7148 283.65 51.7148C285.74 51.7148 287.557 52.1152 289.1 52.916C290.662 53.6973 291.951 54.8105 292.967 56.2559C294.002 57.6816 294.764 59.3809 295.252 61.3535C295.76 63.3066 296.014 65.4648 296.014 67.8281ZM287.576 68.4434V67.8281C287.576 66.5391 287.479 65.3281 287.283 64.1953C287.107 63.043 286.795 62.0371 286.346 61.1777C285.896 60.2988 285.281 59.6055 284.5 59.0977C283.738 58.5898 282.752 58.3359 281.541 58.3359C280.389 58.3359 279.412 58.5312 278.611 58.9219C277.811 59.3125 277.146 59.8594 276.619 60.5625C276.111 61.2656 275.73 62.1055 275.477 63.082C275.223 64.0391 275.066 65.0938 275.008 66.2461V70.084C275.066 71.627 275.32 72.9941 275.77 74.1855C276.238 75.3574 276.941 76.2852 277.879 76.9688C278.836 77.6328 280.076 77.9648 281.6 77.9648C282.791 77.9648 283.777 77.7305 284.559 77.2617C285.34 76.793 285.945 76.1289 286.375 75.2695C286.824 74.4102 287.137 73.4043 287.312 72.252C287.488 71.0801 287.576 69.8105 287.576 68.4434ZM299.91 68.4727V67.8574C299.91 65.5332 300.242 63.3945 300.906 61.4414C301.57 59.4688 302.537 57.7598 303.807 56.3145C305.076 54.8691 306.639 53.7461 308.494 52.9453C310.35 52.125 312.479 51.7148 314.881 51.7148C317.283 51.7148 319.422 52.125 321.297 52.9453C323.172 53.7461 324.744 54.8691 326.014 56.3145C327.303 57.7598 328.279 59.4688 328.943 61.4414C329.607 63.3945 329.939 65.5332 329.939 67.8574V68.4727C329.939 70.7773 329.607 72.916 328.943 74.8887C328.279 76.8418 327.303 78.5508 326.014 80.0156C324.744 81.4609 323.182 82.584 321.326 83.3848C319.471 84.1855 317.342 84.5859 314.939 84.5859C312.537 84.5859 310.398 84.1855 308.523 83.3848C306.668 82.584 305.096 81.4609 303.807 80.0156C302.537 78.5508 301.57 76.8418 300.906 74.8887C300.242 72.916 299.91 70.7773 299.91 68.4727ZM308.348 67.8574V68.4727C308.348 69.8008 308.465 71.041 308.699 72.1934C308.934 73.3457 309.305 74.3613 309.812 75.2402C310.34 76.0996 311.023 76.7734 311.863 77.2617C312.703 77.75 313.729 77.9941 314.939 77.9941C316.111 77.9941 317.117 77.75 317.957 77.2617C318.797 76.7734 319.471 76.0996 319.979 75.2402C320.486 74.3613 320.857 73.3457 321.092 72.1934C321.346 71.041 321.473 69.8008 321.473 68.4727V67.8574C321.473 66.5684 321.346 65.3574 321.092 64.2246C320.857 63.0723 320.477 62.0566 319.949 61.1777C319.441 60.2793 318.768 59.5762 317.928 59.0684C317.088 58.5605 316.072 58.3066 314.881 58.3066C313.689 58.3066 312.674 58.5605 311.834 59.0684C311.014 59.5762 310.34 60.2793 309.812 61.1777C309.305 62.0566 308.934 63.0723 308.699 64.2246C308.465 65.3574 308.348 66.5684 308.348 67.8574ZM344.031 39V84H335.564V39H344.031ZM369.725 77.0859V39H378.221V84H370.574L369.725 77.0859ZM349.686 68.5312V67.916C349.686 65.4941 349.959 63.2969 350.506 61.3242C351.053 59.332 351.854 57.623 352.908 56.1973C353.963 54.7715 355.262 53.668 356.805 52.8867C358.348 52.1055 360.105 51.7148 362.078 51.7148C363.934 51.7148 365.555 52.1055 366.941 52.8867C368.348 53.668 369.539 54.7812 370.516 56.2266C371.512 57.6523 372.312 59.3418 372.918 61.2949C373.523 63.2285 373.963 65.3477 374.236 67.6523V69C373.963 71.207 373.523 73.2578 372.918 75.1523C372.312 77.0469 371.512 78.707 370.516 80.1328C369.539 81.5391 368.348 82.6328 366.941 83.4141C365.535 84.1953 363.895 84.5859 362.02 84.5859C360.047 84.5859 358.289 84.1855 356.746 83.3848C355.223 82.584 353.934 81.4609 352.879 80.0156C351.844 78.5703 351.053 76.8711 350.506 74.918C349.959 72.9648 349.686 70.8359 349.686 68.5312ZM358.123 67.916V68.5312C358.123 69.8398 358.221 71.0605 358.416 72.1934C358.631 73.3262 358.973 74.332 359.441 75.2109C359.93 76.0703 360.555 76.7441 361.316 77.2324C362.098 77.7012 363.045 77.9355 364.158 77.9355C365.604 77.9355 366.795 77.6133 367.732 76.9688C368.67 76.3047 369.383 75.3965 369.871 74.2441C370.379 73.0918 370.672 71.7637 370.75 70.2598V66.4219C370.691 65.1914 370.516 64.0879 370.223 63.1113C369.949 62.1152 369.539 61.2656 368.992 60.5625C368.465 59.8594 367.801 59.3125 367 58.9219C366.219 58.5312 365.291 58.3359 364.217 58.3359C363.123 58.3359 362.186 58.5898 361.404 59.0977C360.623 59.5859 359.988 60.2598 359.5 61.1191C359.031 61.9785 358.68 62.9941 358.445 64.166C358.23 65.3184 358.123 66.5684 358.123 67.916Z" fill="black"/>
<path opacity="0.99" d="M406 57L423.5 77L441 57" stroke="black" stroke-width="5" stroke-linecap="round"/>
<rect x="499" y="23" width="80" height="80" rx="20" fill="#D9D9D9"/>
<rect x="511" y="54" width="57" height="6" fill="black"/>
<rect x="511" y="43" width="57" height="6" fill="black"/>
<rect x="511" y="65" width="57" height="6" fill="black"/>
<rect x="511" y="76" width="57" height="6" fill="black"/>
<rect x="608" y="54" width="45" height="6" fill="black"/>
<rect x="608" y="43" width="57" height="6" fill="black"/>
<rect x="608" y="65" width="37" height="6" fill="black"/>
<rect x="608" y="76" width="37" height="6" fill="black"/>
</svg>
